<mxfile host="app.diagrams.net" agent="Mozilla/5.0 (X11; Linux x86_64) AppleWebKit/537.36 (KHTML, like Gecko) Chrome/131.0.0.0 Safari/537.36" version="26.0.4" pages="9">
  <diagram id="VD2s5qyUj2NcuCkxII5X" name="Cover page">
    <mxGraphModel dx="1434" dy="765" grid="1" gridSize="10" guides="1" tooltips="1" connect="1" arrows="1" fold="1" page="1" pageScale="1" pageWidth="827" pageHeight="1169" math="0" shadow="0">
      <root>
        <mxCell id="0" />
        <mxCell id="1" parent="0" />
        <mxCell id="rqnNdg_s8CnBoi6Wm4nV-3" value="" style="rounded=0;whiteSpace=wrap;html=1;" vertex="1" parent="1">
          <mxGeometry x="114" y="60" width="600" height="60" as="geometry" />
        </mxCell>
        <mxCell id="rqnNdg_s8CnBoi6Wm4nV-4" value="CSE 326 (Information System Design Sessional)" style="text;html=1;strokeColor=none;fillColor=none;align=center;verticalAlign=middle;whiteSpace=wrap;rounded=0;fontSize=20;" vertex="1" parent="1">
          <mxGeometry x="114" y="75" width="620" height="30" as="geometry" />
        </mxCell>
        <mxCell id="el11vXVEjT762Ne3mu9_-1" value="" style="rounded=0;whiteSpace=wrap;html=1;" vertex="1" parent="1">
          <mxGeometry x="114" y="240" width="606" height="370" as="geometry" />
        </mxCell>
        <mxCell id="el11vXVEjT762Ne3mu9_-2" value="Project Name: FindMeADoctor" style="text;html=1;strokeColor=none;fillColor=none;align=left;verticalAlign=middle;whiteSpace=wrap;rounded=0;fontSize=20;" vertex="1" parent="1">
          <mxGeometry x="130" y="260" width="560" height="70" as="geometry" />
        </mxCell>
        <mxCell id="el11vXVEjT762Ne3mu9_-3" value="Group No. 05" style="text;html=1;strokeColor=none;fillColor=none;align=left;verticalAlign=middle;whiteSpace=wrap;rounded=0;fontSize=20;" vertex="1" parent="1">
          <mxGeometry x="130" y="330" width="560" height="70" as="geometry" />
        </mxCell>
        <mxCell id="el11vXVEjT762Ne3mu9_-4" value="Student ID: 1905013 &lt;br&gt;&lt;span style=&quot;white-space: pre;&quot;&gt;&#x9;&lt;/span&gt;&lt;span style=&quot;white-space: pre;&quot;&gt;&#x9;&lt;/span&gt;&amp;nbsp; &amp;nbsp;1905019, &lt;br&gt;&amp;nbsp; &lt;span style=&quot;white-space: pre;&quot;&gt;&#x9;&lt;/span&gt;&lt;span style=&quot;white-space: pre;&quot;&gt;&#x9;&lt;/span&gt;&amp;nbsp; &amp;nbsp;1905024, &lt;br&gt;&amp;nbsp;&lt;span style=&quot;white-space: pre;&quot;&gt;&#x9;&lt;/span&gt;&lt;span style=&quot;white-space: pre;&quot;&gt;&#x9;&lt;/span&gt;&amp;nbsp; &amp;nbsp;1905040, &lt;br&gt;&lt;span style=&quot;white-space: pre;&quot;&gt;&#x9;&lt;/span&gt;&amp;nbsp; &lt;span style=&quot;white-space: pre;&quot;&gt;&#x9;&lt;/span&gt;&amp;nbsp; &amp;nbsp;1905056, &lt;br&gt;&lt;span style=&quot;white-space: pre;&quot;&gt;&#x9;&lt;/span&gt;&lt;span style=&quot;white-space: pre;&quot;&gt;&#x9;&lt;/span&gt;&amp;nbsp; &amp;nbsp;1905060" style="text;html=1;strokeColor=none;fillColor=none;align=left;verticalAlign=middle;whiteSpace=wrap;rounded=0;fontSize=20;" vertex="1" parent="1">
          <mxGeometry x="130" y="430" width="560" height="70" as="geometry" />
        </mxCell>
      </root>
    </mxGraphModel>
  </diagram>
  <diagram id="C5RBs43oDa-KdzZeNtuy" name="Authentication-patient">
    <mxGraphModel dx="1434" dy="765" grid="1" gridSize="10" guides="1" tooltips="1" connect="1" arrows="1" fold="1" page="1" pageScale="1" pageWidth="827" pageHeight="1169" math="0" shadow="0">
      <root>
        <mxCell id="WIyWlLk6GJQsqaUBKTNV-0" />
        <mxCell id="WIyWlLk6GJQsqaUBKTNV-1" parent="WIyWlLk6GJQsqaUBKTNV-0" />
        <mxCell id="mSFiGJsHrSfHygWMSeKw-2" style="edgeStyle=orthogonalEdgeStyle;rounded=0;orthogonalLoop=1;jettySize=auto;html=1;entryX=0.995;entryY=0.667;entryDx=0;entryDy=0;entryPerimeter=0;" parent="WIyWlLk6GJQsqaUBKTNV-1" source="ouerLZBTuXJicgJi_KRU-0" target="ouerLZBTuXJicgJi_KRU-24" edge="1">
          <mxGeometry relative="1" as="geometry" />
        </mxCell>
        <mxCell id="ouerLZBTuXJicgJi_KRU-0" value="&lt;&lt;model&gt;&gt;&#xa;Patient" style="swimlane;fontStyle=1;align=center;verticalAlign=middle;childLayout=stackLayout;horizontal=1;startSize=26;horizontalStack=0;resizeParent=1;resizeLast=0;collapsible=1;marginBottom=0;rounded=0;shadow=0;strokeWidth=1;" parent="WIyWlLk6GJQsqaUBKTNV-1" vertex="1">
          <mxGeometry x="1160" y="290" width="160" height="460" as="geometry">
            <mxRectangle x="130" y="380" width="160" height="26" as="alternateBounds" />
          </mxGeometry>
        </mxCell>
        <mxCell id="ouerLZBTuXJicgJi_KRU-1" value="- Patient ID&#xa;" style="text;align=left;verticalAlign=top;spacingLeft=4;spacingRight=4;overflow=hidden;rotatable=0;points=[[0,0.5],[1,0.5]];portConstraint=eastwest;" parent="ouerLZBTuXJicgJi_KRU-0" vertex="1">
          <mxGeometry y="26" width="160" height="26" as="geometry" />
        </mxCell>
        <mxCell id="ouerLZBTuXJicgJi_KRU-2" value="- name" style="text;align=left;verticalAlign=top;spacingLeft=4;spacingRight=4;overflow=hidden;rotatable=0;points=[[0,0.5],[1,0.5]];portConstraint=eastwest;rounded=0;shadow=0;html=0;" parent="ouerLZBTuXJicgJi_KRU-0" vertex="1">
          <mxGeometry y="52" width="160" height="26" as="geometry" />
        </mxCell>
        <mxCell id="ouerLZBTuXJicgJi_KRU-3" value="- DOB" style="text;align=left;verticalAlign=top;spacingLeft=4;spacingRight=4;overflow=hidden;rotatable=0;points=[[0,0.5],[1,0.5]];portConstraint=eastwest;" parent="ouerLZBTuXJicgJi_KRU-0" vertex="1">
          <mxGeometry y="78" width="160" height="26" as="geometry" />
        </mxCell>
        <mxCell id="ouerLZBTuXJicgJi_KRU-4" value="- address" style="text;align=left;verticalAlign=top;spacingLeft=4;spacingRight=4;overflow=hidden;rotatable=0;points=[[0,0.5],[1,0.5]];portConstraint=eastwest;rounded=0;shadow=0;html=0;" parent="ouerLZBTuXJicgJi_KRU-0" vertex="1">
          <mxGeometry y="104" width="160" height="26" as="geometry" />
        </mxCell>
        <mxCell id="ouerLZBTuXJicgJi_KRU-5" value="- gender" style="text;align=left;verticalAlign=top;spacingLeft=4;spacingRight=4;overflow=hidden;rotatable=0;points=[[0,0.5],[1,0.5]];portConstraint=eastwest;rounded=0;shadow=0;html=0;" parent="ouerLZBTuXJicgJi_KRU-0" vertex="1">
          <mxGeometry y="130" width="160" height="26" as="geometry" />
        </mxCell>
        <mxCell id="ouerLZBTuXJicgJi_KRU-6" value="- phone" style="text;align=left;verticalAlign=top;spacingLeft=4;spacingRight=4;overflow=hidden;rotatable=0;points=[[0,0.5],[1,0.5]];portConstraint=eastwest;rounded=0;shadow=0;html=0;" parent="ouerLZBTuXJicgJi_KRU-0" vertex="1">
          <mxGeometry y="156" width="160" height="26" as="geometry" />
        </mxCell>
        <mxCell id="ouerLZBTuXJicgJi_KRU-7" value="- NID&#xa;" style="text;align=left;verticalAlign=top;spacingLeft=4;spacingRight=4;overflow=hidden;rotatable=0;points=[[0,0.5],[1,0.5]];portConstraint=eastwest;rounded=0;shadow=0;html=0;" parent="ouerLZBTuXJicgJi_KRU-0" vertex="1">
          <mxGeometry y="182" width="160" height="32" as="geometry" />
        </mxCell>
        <mxCell id="ouerLZBTuXJicgJi_KRU-8" value="- height&#xa;" style="text;align=left;verticalAlign=top;spacingLeft=4;spacingRight=4;overflow=hidden;rotatable=0;points=[[0,0.5],[1,0.5]];portConstraint=eastwest;rounded=0;shadow=0;html=0;" parent="ouerLZBTuXJicgJi_KRU-0" vertex="1">
          <mxGeometry y="214" width="160" height="32" as="geometry" />
        </mxCell>
        <mxCell id="ouerLZBTuXJicgJi_KRU-10" value="- weight&#xa;&#xa;- occupations[]&#xa;" style="text;align=left;verticalAlign=top;spacingLeft=4;spacingRight=4;overflow=hidden;rotatable=0;points=[[0,0.5],[1,0.5]];portConstraint=eastwest;rounded=0;shadow=0;html=0;" parent="ouerLZBTuXJicgJi_KRU-0" vertex="1">
          <mxGeometry y="246" width="160" height="84" as="geometry" />
        </mxCell>
        <mxCell id="ouerLZBTuXJicgJi_KRU-16" value="" style="endArrow=none;html=1;rounded=0;entryX=1.019;entryY=0.884;entryDx=0;entryDy=0;entryPerimeter=0;" parent="ouerLZBTuXJicgJi_KRU-0" target="ouerLZBTuXJicgJi_KRU-10" edge="1">
          <mxGeometry width="50" height="50" relative="1" as="geometry">
            <mxPoint y="320" as="sourcePoint" />
            <mxPoint x="50" y="270" as="targetPoint" />
          </mxGeometry>
        </mxCell>
        <mxCell id="ouerLZBTuXJicgJi_KRU-11" value="+ getById(id)" style="text;align=left;verticalAlign=top;spacingLeft=4;spacingRight=4;overflow=hidden;rotatable=0;points=[[0,0.5],[1,0.5]];portConstraint=eastwest;rounded=0;shadow=0;html=0;" parent="ouerLZBTuXJicgJi_KRU-0" vertex="1">
          <mxGeometry y="330" width="160" height="30" as="geometry" />
        </mxCell>
        <mxCell id="ouerLZBTuXJicgJi_KRU-12" value="+ getByNID(nid)" style="text;align=left;verticalAlign=top;spacingLeft=4;spacingRight=4;overflow=hidden;rotatable=0;points=[[0,0.5],[1,0.5]];portConstraint=eastwest;rounded=0;shadow=0;html=0;" parent="ouerLZBTuXJicgJi_KRU-0" vertex="1">
          <mxGeometry y="360" width="160" height="32" as="geometry" />
        </mxCell>
        <mxCell id="ouerLZBTuXJicgJi_KRU-13" value="+ getByName(name)" style="text;align=left;verticalAlign=top;spacingLeft=4;spacingRight=4;overflow=hidden;rotatable=0;points=[[0,0.5],[1,0.5]];portConstraint=eastwest;rounded=0;shadow=0;html=0;" parent="ouerLZBTuXJicgJi_KRU-0" vertex="1">
          <mxGeometry y="392" width="160" height="28" as="geometry" />
        </mxCell>
        <mxCell id="ouerLZBTuXJicgJi_KRU-14" value="+ getByPhoneNo(phn)" style="text;align=left;verticalAlign=top;spacingLeft=4;spacingRight=4;overflow=hidden;rotatable=0;points=[[0,0.5],[1,0.5]];portConstraint=eastwest;rounded=0;shadow=0;html=0;" parent="ouerLZBTuXJicgJi_KRU-0" vertex="1">
          <mxGeometry y="420" width="160" height="32" as="geometry" />
        </mxCell>
        <mxCell id="mSFiGJsHrSfHygWMSeKw-0" style="edgeStyle=orthogonalEdgeStyle;rounded=0;orthogonalLoop=1;jettySize=auto;html=1;entryX=0.25;entryY=0;entryDx=0;entryDy=0;" parent="WIyWlLk6GJQsqaUBKTNV-1" source="ouerLZBTuXJicgJi_KRU-22" target="ouerLZBTuXJicgJi_KRU-24" edge="1">
          <mxGeometry relative="1" as="geometry" />
        </mxCell>
        <mxCell id="ouerLZBTuXJicgJi_KRU-22" value="&lt;p style=&quot;margin:0px;margin-top:4px;text-align:center;&quot;&gt;&lt;i&gt;&amp;lt;&amp;lt;boundary&amp;gt;&amp;gt;&lt;/i&gt;&lt;br&gt;&lt;b&gt;LoginUI&lt;/b&gt;&lt;/p&gt;&lt;hr size=&quot;1&quot;&gt;&lt;p style=&quot;margin:0px;margin-left:4px;&quot;&gt;&lt;br&gt;&lt;/p&gt;&lt;hr size=&quot;1&quot;&gt;&lt;p style=&quot;margin:0px;margin-left:4px;&quot;&gt;+ inputPatientInfo(username, pass)&lt;/p&gt;&lt;p style=&quot;margin:0px;margin-left:4px;&quot;&gt;+ login()&lt;/p&gt;&lt;p style=&quot;margin:0px;margin-left:4px;&quot;&gt;+ forgotPass(username, email)&lt;/p&gt;&lt;p style=&quot;margin:0px;margin-left:4px;&quot;&gt;&lt;br&gt;&lt;/p&gt;" style="verticalAlign=top;align=left;overflow=fill;fontSize=12;fontFamily=Helvetica;html=1;" parent="WIyWlLk6GJQsqaUBKTNV-1" vertex="1">
          <mxGeometry x="150" y="220" width="240" height="130" as="geometry" />
        </mxCell>
        <mxCell id="mSFiGJsHrSfHygWMSeKw-1" style="edgeStyle=orthogonalEdgeStyle;rounded=0;orthogonalLoop=1;jettySize=auto;html=1;entryX=0.281;entryY=1.013;entryDx=0;entryDy=0;entryPerimeter=0;" parent="WIyWlLk6GJQsqaUBKTNV-1" source="ouerLZBTuXJicgJi_KRU-23" target="ouerLZBTuXJicgJi_KRU-24" edge="1">
          <mxGeometry relative="1" as="geometry" />
        </mxCell>
        <mxCell id="ouerLZBTuXJicgJi_KRU-23" value="&lt;p style=&quot;margin:0px;margin-top:4px;text-align:center;&quot;&gt;&lt;i&gt;&amp;lt;&amp;lt;boundary&amp;gt;&amp;gt;&lt;/i&gt;&lt;br&gt;&lt;b&gt;RegisterUI&lt;/b&gt;&lt;/p&gt;&lt;hr size=&quot;1&quot;&gt;&lt;p style=&quot;margin:0px;margin-left:4px;&quot;&gt;&lt;br&gt;&lt;/p&gt;&lt;hr size=&quot;1&quot;&gt;&lt;p style=&quot;margin:0px;margin-left:4px;&quot;&gt;+ inputPatientInfo(username, fullname, password, phone)&lt;/p&gt;&lt;p style=&quot;margin:0px;margin-left:4px;&quot;&gt;+ signup()&lt;/p&gt;" style="verticalAlign=top;align=left;overflow=fill;fontSize=12;fontFamily=Helvetica;html=1;" parent="WIyWlLk6GJQsqaUBKTNV-1" vertex="1">
          <mxGeometry x="80" y="640" width="380" height="110" as="geometry" />
        </mxCell>
        <mxCell id="ouerLZBTuXJicgJi_KRU-24" value="&lt;p style=&quot;margin:0px;margin-top:4px;text-align:center;&quot;&gt;&lt;i&gt;&amp;lt;&amp;lt;control&amp;gt;&amp;gt;&lt;/i&gt;&lt;br&gt;&lt;b&gt;AuthControl&lt;/b&gt;&lt;/p&gt;&lt;hr size=&quot;1&quot;&gt;&lt;p style=&quot;margin:0px;margin-left:4px;&quot;&gt;&lt;br&gt;&lt;/p&gt;&lt;hr size=&quot;1&quot;&gt;&lt;p style=&quot;margin:0px;margin-left:4px;&quot;&gt;+ inputPatientInfo(username, fullname, password, gender, phone)&lt;/p&gt;&lt;p style=&quot;margin:0px;margin-left:4px;&quot;&gt;+ forgetPassword(username, email)&lt;/p&gt;&lt;p style=&quot;margin:0px;margin-left:4px;&quot;&gt;&lt;br&gt;&lt;/p&gt;&lt;p style=&quot;margin:0px;margin-left:4px;&quot;&gt;+ signup(username,fullname, password, gender, phone)&lt;/p&gt;" style="verticalAlign=top;align=left;overflow=fill;fontSize=12;fontFamily=Helvetica;html=1;" parent="WIyWlLk6GJQsqaUBKTNV-1" vertex="1">
          <mxGeometry x="630" y="420" width="370" height="150" as="geometry" />
        </mxCell>
      </root>
    </mxGraphModel>
  </diagram>
  <diagram id="7Wnrm80K6HY0eEEQHC6R" name="Authentication-Doctor">
    <mxGraphModel dx="1434" dy="765" grid="1" gridSize="10" guides="1" tooltips="1" connect="1" arrows="1" fold="1" page="1" pageScale="1" pageWidth="827" pageHeight="1169" math="0" shadow="0">
      <root>
        <mxCell id="0" />
        <mxCell id="1" parent="0" />
        <mxCell id="T9lnWNuGNBTBXN3EiK_T-1" style="edgeStyle=orthogonalEdgeStyle;rounded=0;orthogonalLoop=1;jettySize=auto;html=1;entryX=0.995;entryY=0.667;entryDx=0;entryDy=0;entryPerimeter=0;" edge="1" parent="1" target="T9lnWNuGNBTBXN3EiK_T-21">
          <mxGeometry relative="1" as="geometry">
            <mxPoint x="1160" y="520" as="sourcePoint" />
          </mxGeometry>
        </mxCell>
        <mxCell id="T9lnWNuGNBTBXN3EiK_T-17" style="edgeStyle=orthogonalEdgeStyle;rounded=0;orthogonalLoop=1;jettySize=auto;html=1;entryX=0.25;entryY=0;entryDx=0;entryDy=0;" edge="1" parent="1" source="T9lnWNuGNBTBXN3EiK_T-18" target="T9lnWNuGNBTBXN3EiK_T-21">
          <mxGeometry relative="1" as="geometry" />
        </mxCell>
        <mxCell id="T9lnWNuGNBTBXN3EiK_T-18" value="&lt;p style=&quot;margin:0px;margin-top:4px;text-align:center;&quot;&gt;&lt;i&gt;&amp;lt;&amp;lt;boundary&amp;gt;&amp;gt;&lt;/i&gt;&lt;br&gt;&lt;b&gt;LoginUI&lt;/b&gt;&lt;/p&gt;&lt;hr size=&quot;1&quot;&gt;&lt;p style=&quot;margin:0px;margin-left:4px;&quot;&gt;&lt;br&gt;&lt;/p&gt;&lt;hr size=&quot;1&quot;&gt;&lt;p style=&quot;margin:0px;margin-left:4px;&quot;&gt;+ inputDoctorInfo(username, pass)&lt;/p&gt;&lt;p style=&quot;margin:0px;margin-left:4px;&quot;&gt;+ login()&lt;/p&gt;&lt;p style=&quot;margin:0px;margin-left:4px;&quot;&gt;+ forgotPass(username, email)&lt;/p&gt;&lt;p style=&quot;margin:0px;margin-left:4px;&quot;&gt;&lt;br&gt;&lt;/p&gt;" style="verticalAlign=top;align=left;overflow=fill;fontSize=12;fontFamily=Helvetica;html=1;" vertex="1" parent="1">
          <mxGeometry x="150" y="220" width="240" height="130" as="geometry" />
        </mxCell>
        <mxCell id="T9lnWNuGNBTBXN3EiK_T-19" style="edgeStyle=orthogonalEdgeStyle;rounded=0;orthogonalLoop=1;jettySize=auto;html=1;entryX=0.281;entryY=1.013;entryDx=0;entryDy=0;entryPerimeter=0;" edge="1" parent="1" source="T9lnWNuGNBTBXN3EiK_T-20" target="T9lnWNuGNBTBXN3EiK_T-21">
          <mxGeometry relative="1" as="geometry" />
        </mxCell>
        <mxCell id="T9lnWNuGNBTBXN3EiK_T-20" value="&lt;p style=&quot;margin:0px;margin-top:4px;text-align:center;&quot;&gt;&lt;i&gt;&amp;lt;&amp;lt;boundary&amp;gt;&amp;gt;&lt;/i&gt;&lt;br&gt;&lt;b&gt;RegisterUI&lt;/b&gt;&lt;/p&gt;&lt;hr size=&quot;1&quot;&gt;&lt;p style=&quot;margin:0px;margin-left:4px;&quot;&gt;&lt;br&gt;&lt;/p&gt;&lt;hr size=&quot;1&quot;&gt;&lt;p style=&quot;margin:0px;margin-left:4px;&quot;&gt;+ inputDoctorInfo(username, fullname, password, phone)&lt;/p&gt;&lt;p style=&quot;margin:0px;margin-left:4px;&quot;&gt;+ signup()&lt;/p&gt;" style="verticalAlign=top;align=left;overflow=fill;fontSize=12;fontFamily=Helvetica;html=1;" vertex="1" parent="1">
          <mxGeometry x="80" y="640" width="380" height="110" as="geometry" />
        </mxCell>
        <mxCell id="T9lnWNuGNBTBXN3EiK_T-21" value="&lt;p style=&quot;margin:0px;margin-top:4px;text-align:center;&quot;&gt;&lt;i&gt;&amp;lt;&amp;lt;control&amp;gt;&amp;gt;&lt;/i&gt;&lt;br&gt;&lt;b&gt;AuthControl&lt;/b&gt;&lt;/p&gt;&lt;hr size=&quot;1&quot;&gt;&lt;p style=&quot;margin:0px;margin-left:4px;&quot;&gt;&lt;br&gt;&lt;/p&gt;&lt;hr size=&quot;1&quot;&gt;&lt;p style=&quot;margin:0px;margin-left:4px;&quot;&gt;+ inputDoctorInfo(username, fullname, password, gender, phone)&lt;/p&gt;&lt;p style=&quot;margin:0px;margin-left:4px;&quot;&gt;+ forgetPassword(username, email)&lt;/p&gt;&lt;p style=&quot;margin:0px;margin-left:4px;&quot;&gt;&lt;br&gt;&lt;/p&gt;&lt;p style=&quot;margin:0px;margin-left:4px;&quot;&gt;+ signup(username,fullname, password, gender, phone)&lt;/p&gt;" style="verticalAlign=top;align=left;overflow=fill;fontSize=12;fontFamily=Helvetica;html=1;" vertex="1" parent="1">
          <mxGeometry x="630" y="420" width="370" height="150" as="geometry" />
        </mxCell>
        <mxCell id="4aAzoEyaXbCmUtow_a9Q-1" value="" style="rounded=0;whiteSpace=wrap;html=1;" vertex="1" parent="1">
          <mxGeometry x="1140" y="330" width="230" height="480" as="geometry" />
        </mxCell>
        <mxCell id="4aAzoEyaXbCmUtow_a9Q-2" value="" style="endArrow=none;html=1;rounded=0;" edge="1" parent="1">
          <mxGeometry width="50" height="50" relative="1" as="geometry">
            <mxPoint x="1140" y="370" as="sourcePoint" />
            <mxPoint x="1369.9999999999998" y="370" as="targetPoint" />
            <Array as="points">
              <mxPoint x="1260" y="370" />
              <mxPoint x="1370" y="370" />
            </Array>
          </mxGeometry>
        </mxCell>
        <mxCell id="4aAzoEyaXbCmUtow_a9Q-3" value="&amp;lt;&amp;lt;model&amp;gt;&amp;gt;" style="text;html=1;strokeColor=none;fillColor=none;align=center;verticalAlign=middle;whiteSpace=wrap;rounded=0;" vertex="1" parent="1">
          <mxGeometry x="1225" y="330" width="60" height="20" as="geometry" />
        </mxCell>
        <mxCell id="4aAzoEyaXbCmUtow_a9Q-4" value="Doctor" style="text;html=1;strokeColor=none;fillColor=none;align=center;verticalAlign=middle;whiteSpace=wrap;rounded=0;" vertex="1" parent="1">
          <mxGeometry x="1225" y="350" width="60" height="20" as="geometry" />
        </mxCell>
        <mxCell id="4aAzoEyaXbCmUtow_a9Q-5" value="- Doctor ID" style="text;html=1;strokeColor=none;fillColor=none;align=left;verticalAlign=middle;whiteSpace=wrap;rounded=0;" vertex="1" parent="1">
          <mxGeometry x="1140" y="380" width="230" height="20" as="geometry" />
        </mxCell>
        <mxCell id="4aAzoEyaXbCmUtow_a9Q-6" value="- Name" style="text;html=1;strokeColor=none;fillColor=none;align=left;verticalAlign=middle;whiteSpace=wrap;rounded=0;" vertex="1" parent="1">
          <mxGeometry x="1140" y="400" width="230" height="20" as="geometry" />
        </mxCell>
        <mxCell id="4aAzoEyaXbCmUtow_a9Q-7" value="- Speciality" style="text;html=1;strokeColor=none;fillColor=none;align=left;verticalAlign=middle;whiteSpace=wrap;rounded=0;" vertex="1" parent="1">
          <mxGeometry x="1140" y="440" width="230" height="20" as="geometry" />
        </mxCell>
        <mxCell id="4aAzoEyaXbCmUtow_a9Q-8" value="- Gender" style="text;html=1;strokeColor=none;fillColor=none;align=left;verticalAlign=middle;whiteSpace=wrap;rounded=0;" vertex="1" parent="1">
          <mxGeometry x="1140" y="460" width="230" height="20" as="geometry" />
        </mxCell>
        <mxCell id="4aAzoEyaXbCmUtow_a9Q-9" value="- Chamber location[]" style="text;html=1;strokeColor=none;fillColor=none;align=left;verticalAlign=middle;whiteSpace=wrap;rounded=0;" vertex="1" parent="1">
          <mxGeometry x="1140" y="480" width="230" height="20" as="geometry" />
        </mxCell>
        <mxCell id="4aAzoEyaXbCmUtow_a9Q-10" value="- Affiliated Hospital" style="text;html=1;strokeColor=none;fillColor=none;align=left;verticalAlign=middle;whiteSpace=wrap;rounded=0;" vertex="1" parent="1">
          <mxGeometry x="1140" y="500" width="230" height="20" as="geometry" />
        </mxCell>
        <mxCell id="4aAzoEyaXbCmUtow_a9Q-11" value="- Degree[]" style="text;html=1;strokeColor=none;fillColor=none;align=left;verticalAlign=middle;whiteSpace=wrap;rounded=0;" vertex="1" parent="1">
          <mxGeometry x="1140" y="520" width="230" height="20" as="geometry" />
        </mxCell>
        <mxCell id="4aAzoEyaXbCmUtow_a9Q-12" value="- Domain" style="text;html=1;strokeColor=none;fillColor=none;align=left;verticalAlign=middle;whiteSpace=wrap;rounded=0;" vertex="1" parent="1">
          <mxGeometry x="1140" y="420" width="230" height="20" as="geometry" />
        </mxCell>
        <mxCell id="4aAzoEyaXbCmUtow_a9Q-13" value="" style="endArrow=none;html=1;rounded=0;" edge="1" parent="1" target="4aAzoEyaXbCmUtow_a9Q-1">
          <mxGeometry width="50" height="50" relative="1" as="geometry">
            <mxPoint x="1140" y="560" as="sourcePoint" />
            <mxPoint x="1190" y="510" as="targetPoint" />
            <Array as="points">
              <mxPoint x="1370" y="560" />
            </Array>
          </mxGeometry>
        </mxCell>
        <mxCell id="4aAzoEyaXbCmUtow_a9Q-14" value="+ getByName(name)" style="text;html=1;strokeColor=none;fillColor=none;align=left;verticalAlign=middle;whiteSpace=wrap;rounded=0;" vertex="1" parent="1">
          <mxGeometry x="1140" y="560" width="230" height="30" as="geometry" />
        </mxCell>
        <mxCell id="4aAzoEyaXbCmUtow_a9Q-15" value="+ getByLocation(location)" style="text;html=1;strokeColor=none;fillColor=none;align=left;verticalAlign=middle;whiteSpace=wrap;rounded=0;" vertex="1" parent="1">
          <mxGeometry x="1140" y="590" width="230" height="30" as="geometry" />
        </mxCell>
        <mxCell id="4aAzoEyaXbCmUtow_a9Q-16" value="+ getByGender(gender)" style="text;html=1;strokeColor=none;fillColor=none;align=left;verticalAlign=middle;whiteSpace=wrap;rounded=0;" vertex="1" parent="1">
          <mxGeometry x="1140" y="620" width="230" height="30" as="geometry" />
        </mxCell>
        <mxCell id="4aAzoEyaXbCmUtow_a9Q-17" value="+ getByHospital(hospital)" style="text;html=1;strokeColor=none;fillColor=none;align=left;verticalAlign=middle;whiteSpace=wrap;rounded=0;" vertex="1" parent="1">
          <mxGeometry x="1140" y="650" width="230" height="30" as="geometry" />
        </mxCell>
        <mxCell id="4aAzoEyaXbCmUtow_a9Q-18" value="+ getBySpeciality(speciality)" style="text;html=1;strokeColor=none;fillColor=none;align=left;verticalAlign=middle;whiteSpace=wrap;rounded=0;" vertex="1" parent="1">
          <mxGeometry x="1140" y="680" width="230" height="30" as="geometry" />
        </mxCell>
        <mxCell id="4aAzoEyaXbCmUtow_a9Q-19" value="+ getByDomain(domain)" style="text;html=1;strokeColor=none;fillColor=none;align=left;verticalAlign=middle;whiteSpace=wrap;rounded=0;" vertex="1" parent="1">
          <mxGeometry x="1140" y="710" width="230" height="30" as="geometry" />
        </mxCell>
        <mxCell id="4aAzoEyaXbCmUtow_a9Q-20" value="+getReviews(Did)" style="text;html=1;strokeColor=none;fillColor=none;align=center;verticalAlign=middle;whiteSpace=wrap;rounded=0;" vertex="1" parent="1">
          <mxGeometry x="1165" y="750" width="60" height="30" as="geometry" />
        </mxCell>
      </root>
    </mxGraphModel>
  </diagram>
  <diagram id="90BwVWJfoiFmS7jmwn2u" name="Search">
    <mxGraphModel dx="1793" dy="956" grid="1" gridSize="10" guides="1" tooltips="1" connect="1" arrows="1" fold="1" page="1" pageScale="1" pageWidth="850" pageHeight="1100" math="0" shadow="0">
      <root>
        <mxCell id="0" />
        <mxCell id="1" parent="0" />
        <mxCell id="DYPxfwgayY07thLflfDZ-1" value="&lt;&lt;view&gt;&gt;&#xa;SearchUI&#xa;" style="swimlane;fontStyle=1;align=center;verticalAlign=middle;childLayout=stackLayout;horizontal=1;startSize=26;horizontalStack=0;resizeParent=1;resizeLast=0;collapsible=1;marginBottom=0;rounded=0;shadow=0;strokeWidth=1;spacing=6;spacingTop=12;" parent="1" vertex="1">
          <mxGeometry x="40" y="70" width="270" height="470" as="geometry">
            <mxRectangle x="230" y="140" width="160" height="26" as="alternateBounds" />
          </mxGeometry>
        </mxCell>
        <mxCell id="DYPxfwgayY07thLflfDZ-2" value="" style="line;html=1;strokeWidth=1;align=left;verticalAlign=middle;spacingTop=-1;spacingLeft=3;spacingRight=3;rotatable=0;labelPosition=right;points=[];portConstraint=eastwest;" parent="DYPxfwgayY07thLflfDZ-1" vertex="1">
          <mxGeometry y="26" width="270" height="8" as="geometry" />
        </mxCell>
        <mxCell id="DYPxfwgayY07thLflfDZ-3" value="+inputName()&#xa;&#xa;+ selectSpeciality()&#xa;&#xa;+ selectLocation()&#xa;&#xa;+ selectSymptom()&#xa;&#xa;+ selectHospital()&#xa;&#xa;+ selectGender()" style="text;align=left;verticalAlign=top;spacingLeft=4;spacingRight=4;overflow=hidden;rotatable=0;points=[[0,0.5],[1,0.5]];portConstraint=eastwest;" parent="DYPxfwgayY07thLflfDZ-1" vertex="1">
          <mxGeometry y="34" width="270" height="176" as="geometry" />
        </mxCell>
        <mxCell id="DYPxfwgayY07thLflfDZ-10" value="+viewSearchResults()&#xa;&#xa;+search(Speciality, Location, Symptom, Hospital)&#xa;&#xa;+ sort_subspeciality (doctor_list)&#xa;&#xa;+sort_rating (doctor_list)&#xa;&#xa;+ sort_rating(alphabetically)" style="text;align=left;verticalAlign=top;spacingLeft=4;spacingRight=4;overflow=hidden;rotatable=0;points=[[0,0.5],[1,0.5]];portConstraint=eastwest;" parent="DYPxfwgayY07thLflfDZ-1" vertex="1">
          <mxGeometry y="210" width="270" height="260" as="geometry" />
        </mxCell>
        <mxCell id="9JgbJdfANQ0KhbxYy4nV-2" value="" style="rounded=0;whiteSpace=wrap;html=1;" parent="1" vertex="1">
          <mxGeometry x="990" y="70" width="230" height="480" as="geometry" />
        </mxCell>
        <mxCell id="9JgbJdfANQ0KhbxYy4nV-3" value="" style="endArrow=none;html=1;rounded=0;" parent="1" edge="1">
          <mxGeometry width="50" height="50" relative="1" as="geometry">
            <mxPoint x="990" y="120" as="sourcePoint" />
            <mxPoint x="1219.9999999999998" y="120" as="targetPoint" />
            <Array as="points">
              <mxPoint x="1110" y="120" />
              <mxPoint x="1220" y="120" />
            </Array>
          </mxGeometry>
        </mxCell>
        <mxCell id="9JgbJdfANQ0KhbxYy4nV-4" value="&amp;lt;&amp;lt;model&amp;gt;&amp;gt;" style="text;html=1;strokeColor=none;fillColor=none;align=center;verticalAlign=middle;whiteSpace=wrap;rounded=0;" parent="1" vertex="1">
          <mxGeometry x="1075" y="80" width="60" height="20" as="geometry" />
        </mxCell>
        <mxCell id="9JgbJdfANQ0KhbxYy4nV-6" value="Doctor" style="text;html=1;strokeColor=none;fillColor=none;align=center;verticalAlign=middle;whiteSpace=wrap;rounded=0;" parent="1" vertex="1">
          <mxGeometry x="1075" y="100" width="60" height="20" as="geometry" />
        </mxCell>
        <mxCell id="KPMnyUSMcXpoe-LSi_A_-1" style="edgeStyle=orthogonalEdgeStyle;rounded=0;orthogonalLoop=1;jettySize=auto;html=1;" edge="1" parent="1" source="9JgbJdfANQ0KhbxYy4nV-8">
          <mxGeometry relative="1" as="geometry">
            <mxPoint x="630" y="449.9999999999998" as="targetPoint" />
          </mxGeometry>
        </mxCell>
        <mxCell id="9JgbJdfANQ0KhbxYy4nV-8" value="" style="rounded=0;whiteSpace=wrap;html=1;" parent="1" vertex="1">
          <mxGeometry x="570" y="520" width="180" height="140" as="geometry" />
        </mxCell>
        <mxCell id="9JgbJdfANQ0KhbxYy4nV-9" value="" style="endArrow=none;html=1;rounded=0;" parent="1" target="9JgbJdfANQ0KhbxYy4nV-8" edge="1">
          <mxGeometry width="50" height="50" relative="1" as="geometry">
            <mxPoint x="570" y="570" as="sourcePoint" />
            <mxPoint x="620" y="520" as="targetPoint" />
            <Array as="points">
              <mxPoint x="750" y="570" />
            </Array>
          </mxGeometry>
        </mxCell>
        <mxCell id="9JgbJdfANQ0KhbxYy4nV-11" value="&amp;lt;&amp;lt;model&amp;gt;&amp;gt;" style="text;html=1;strokeColor=none;fillColor=none;align=center;verticalAlign=middle;whiteSpace=wrap;rounded=0;" parent="1" vertex="1">
          <mxGeometry x="625" y="520" width="60" height="20" as="geometry" />
        </mxCell>
        <mxCell id="9JgbJdfANQ0KhbxYy4nV-12" value="Symptom" style="text;html=1;strokeColor=none;fillColor=none;align=center;verticalAlign=middle;whiteSpace=wrap;rounded=0;" parent="1" vertex="1">
          <mxGeometry x="625" y="540" width="60" height="20" as="geometry" />
        </mxCell>
        <mxCell id="9JgbJdfANQ0KhbxYy4nV-15" value="- symptom" style="text;html=1;strokeColor=none;fillColor=none;align=left;verticalAlign=middle;whiteSpace=wrap;rounded=0;" parent="1" vertex="1">
          <mxGeometry x="570" y="570" width="180" height="20" as="geometry" />
        </mxCell>
        <mxCell id="9JgbJdfANQ0KhbxYy4nV-16" value="- speciality[]" style="text;html=1;strokeColor=none;fillColor=none;align=left;verticalAlign=middle;whiteSpace=wrap;rounded=0;" parent="1" vertex="1">
          <mxGeometry x="570" y="590" width="180" height="20" as="geometry" />
        </mxCell>
        <mxCell id="9JgbJdfANQ0KhbxYy4nV-17" value="" style="endArrow=none;html=1;rounded=0;" parent="1" edge="1">
          <mxGeometry width="50" height="50" relative="1" as="geometry">
            <mxPoint x="570" y="620" as="sourcePoint" />
            <mxPoint x="750.0000000000002" y="620.0000000000002" as="targetPoint" />
            <Array as="points">
              <mxPoint x="750" y="620" />
            </Array>
          </mxGeometry>
        </mxCell>
        <mxCell id="9JgbJdfANQ0KhbxYy4nV-19" value="+ getSpeciality(symptom)" style="text;html=1;strokeColor=none;fillColor=none;align=left;verticalAlign=middle;whiteSpace=wrap;rounded=0;" parent="1" vertex="1">
          <mxGeometry x="570" y="630" width="180" height="20" as="geometry" />
        </mxCell>
        <mxCell id="9JgbJdfANQ0KhbxYy4nV-21" value="- Doctor ID" style="text;html=1;strokeColor=none;fillColor=none;align=left;verticalAlign=middle;whiteSpace=wrap;rounded=0;" parent="1" vertex="1">
          <mxGeometry x="990" y="130" width="230" height="20" as="geometry" />
        </mxCell>
        <mxCell id="9JgbJdfANQ0KhbxYy4nV-22" value="- Name" style="text;html=1;strokeColor=none;fillColor=none;align=left;verticalAlign=middle;whiteSpace=wrap;rounded=0;" parent="1" vertex="1">
          <mxGeometry x="990" y="150" width="230" height="20" as="geometry" />
        </mxCell>
        <mxCell id="9JgbJdfANQ0KhbxYy4nV-23" value="- Speciality" style="text;html=1;strokeColor=none;fillColor=none;align=left;verticalAlign=middle;whiteSpace=wrap;rounded=0;" parent="1" vertex="1">
          <mxGeometry x="990" y="190" width="230" height="20" as="geometry" />
        </mxCell>
        <mxCell id="9JgbJdfANQ0KhbxYy4nV-24" value="- Gender" style="text;html=1;strokeColor=none;fillColor=none;align=left;verticalAlign=middle;whiteSpace=wrap;rounded=0;" parent="1" vertex="1">
          <mxGeometry x="990" y="210" width="230" height="20" as="geometry" />
        </mxCell>
        <mxCell id="9JgbJdfANQ0KhbxYy4nV-25" value="- Chamber location[]" style="text;html=1;strokeColor=none;fillColor=none;align=left;verticalAlign=middle;whiteSpace=wrap;rounded=0;" parent="1" vertex="1">
          <mxGeometry x="990" y="230" width="230" height="20" as="geometry" />
        </mxCell>
        <mxCell id="4tIJRRfcUaRdHpvq3RzD-4" style="edgeStyle=orthogonalEdgeStyle;rounded=0;orthogonalLoop=1;jettySize=auto;html=1;entryX=1.011;entryY=0.649;entryDx=0;entryDy=0;entryPerimeter=0;" parent="1" source="9JgbJdfANQ0KhbxYy4nV-26" target="9JgbJdfANQ0KhbxYy4nV-36" edge="1">
          <mxGeometry relative="1" as="geometry" />
        </mxCell>
        <mxCell id="9JgbJdfANQ0KhbxYy4nV-26" value="- Affiliated Hospital" style="text;html=1;strokeColor=none;fillColor=none;align=left;verticalAlign=middle;whiteSpace=wrap;rounded=0;" parent="1" vertex="1">
          <mxGeometry x="990" y="250" width="230" height="20" as="geometry" />
        </mxCell>
        <mxCell id="9JgbJdfANQ0KhbxYy4nV-27" value="- Degree[]" style="text;html=1;strokeColor=none;fillColor=none;align=left;verticalAlign=middle;whiteSpace=wrap;rounded=0;" parent="1" vertex="1">
          <mxGeometry x="990" y="270" width="230" height="20" as="geometry" />
        </mxCell>
        <mxCell id="9JgbJdfANQ0KhbxYy4nV-33" value="&lt;&lt;control&gt;&gt;&#xa;SearchUI&#xa;" style="swimlane;fontStyle=1;align=center;verticalAlign=middle;childLayout=stackLayout;horizontal=1;startSize=26;horizontalStack=0;resizeParent=1;resizeLast=0;collapsible=1;marginBottom=0;rounded=0;shadow=0;strokeWidth=1;spacing=6;spacingTop=12;" parent="1" vertex="1">
          <mxGeometry x="480" y="70" width="360" height="370" as="geometry">
            <mxRectangle x="230" y="140" width="160" height="26" as="alternateBounds" />
          </mxGeometry>
        </mxCell>
        <mxCell id="9JgbJdfANQ0KhbxYy4nV-34" value="" style="line;html=1;strokeWidth=1;align=left;verticalAlign=middle;spacingTop=-1;spacingLeft=3;spacingRight=3;rotatable=0;labelPosition=right;points=[];portConstraint=eastwest;" parent="9JgbJdfANQ0KhbxYy4nV-33" vertex="1">
          <mxGeometry y="26" width="360" height="8" as="geometry" />
        </mxCell>
        <mxCell id="9JgbJdfANQ0KhbxYy4nV-36" value="+searchSpeciality(speciality)&#xa;&#xa;+searchLocation(location)&#xa;&#xa;+searchSymptom(symptom)&#xa;&#xa;+searchHospital(hospital)&#xa;&#xa;+searchGender(gender)&#xa;&#xa;+retrieveDoctor(Speciality, Location, Symptom, Hospital, Gender)&#xa;&#xa;+sort_subspeciality(doctor_list)&#xa;&#xa;+sort_alphabetically (doctor_list)&#xa;&#xa;+sort_rating (doctor_list)&#xa;&#xa;+ searchByName(name)" style="text;align=left;verticalAlign=top;spacingLeft=4;spacingRight=4;overflow=hidden;rotatable=0;points=[[0,0.5],[1,0.5]];portConstraint=eastwest;" parent="9JgbJdfANQ0KhbxYy4nV-33" vertex="1">
          <mxGeometry y="34" width="360" height="336" as="geometry" />
        </mxCell>
        <mxCell id="4tIJRRfcUaRdHpvq3RzD-3" style="edgeStyle=orthogonalEdgeStyle;rounded=0;orthogonalLoop=1;jettySize=auto;html=1;entryX=0.008;entryY=0.301;entryDx=0;entryDy=0;entryPerimeter=0;" parent="1" source="DYPxfwgayY07thLflfDZ-3" target="9JgbJdfANQ0KhbxYy4nV-36" edge="1">
          <mxGeometry relative="1" as="geometry" />
        </mxCell>
        <mxCell id="4tIJRRfcUaRdHpvq3RzD-5" value="- Domain" style="text;html=1;strokeColor=none;fillColor=none;align=left;verticalAlign=middle;whiteSpace=wrap;rounded=0;" parent="1" vertex="1">
          <mxGeometry x="990" y="170" width="230" height="20" as="geometry" />
        </mxCell>
        <mxCell id="4tIJRRfcUaRdHpvq3RzD-9" value="" style="endArrow=none;html=1;rounded=0;" parent="1" target="9JgbJdfANQ0KhbxYy4nV-2" edge="1">
          <mxGeometry width="50" height="50" relative="1" as="geometry">
            <mxPoint x="990" y="310" as="sourcePoint" />
            <mxPoint x="1040" y="260" as="targetPoint" />
            <Array as="points">
              <mxPoint x="1220" y="310" />
            </Array>
          </mxGeometry>
        </mxCell>
        <mxCell id="4tIJRRfcUaRdHpvq3RzD-12" value="+ getByName(name)" style="text;html=1;strokeColor=none;fillColor=none;align=left;verticalAlign=middle;whiteSpace=wrap;rounded=0;" parent="1" vertex="1">
          <mxGeometry x="990" y="310" width="230" height="30" as="geometry" />
        </mxCell>
        <mxCell id="4tIJRRfcUaRdHpvq3RzD-13" value="+ getByLocation(location)" style="text;html=1;strokeColor=none;fillColor=none;align=left;verticalAlign=middle;whiteSpace=wrap;rounded=0;" parent="1" vertex="1">
          <mxGeometry x="990" y="340" width="230" height="30" as="geometry" />
        </mxCell>
        <mxCell id="4tIJRRfcUaRdHpvq3RzD-15" value="+ getByGender(gender)" style="text;html=1;strokeColor=none;fillColor=none;align=left;verticalAlign=middle;whiteSpace=wrap;rounded=0;" parent="1" vertex="1">
          <mxGeometry x="990" y="370" width="230" height="30" as="geometry" />
        </mxCell>
        <mxCell id="4tIJRRfcUaRdHpvq3RzD-16" value="+ getByHospital(hospital)" style="text;html=1;strokeColor=none;fillColor=none;align=left;verticalAlign=middle;whiteSpace=wrap;rounded=0;" parent="1" vertex="1">
          <mxGeometry x="990" y="400" width="230" height="30" as="geometry" />
        </mxCell>
        <mxCell id="4tIJRRfcUaRdHpvq3RzD-17" value="+ getBySpeciality(speciality)" style="text;html=1;strokeColor=none;fillColor=none;align=left;verticalAlign=middle;whiteSpace=wrap;rounded=0;" parent="1" vertex="1">
          <mxGeometry x="990" y="430" width="230" height="30" as="geometry" />
        </mxCell>
        <mxCell id="4tIJRRfcUaRdHpvq3RzD-18" value="+ getByDomain(domain)" style="text;html=1;strokeColor=none;fillColor=none;align=left;verticalAlign=middle;whiteSpace=wrap;rounded=0;" parent="1" vertex="1">
          <mxGeometry x="990" y="460" width="230" height="30" as="geometry" />
        </mxCell>
        <mxCell id="IHPClqDvV630Yt_NyeOv-13" style="edgeStyle=orthogonalEdgeStyle;rounded=0;orthogonalLoop=1;jettySize=auto;html=1;entryX=0.543;entryY=1.002;entryDx=0;entryDy=0;entryPerimeter=0;" edge="1" parent="1" source="gcQ1suDMP1nGK7BCTo6g-1" target="9JgbJdfANQ0KhbxYy4nV-2">
          <mxGeometry relative="1" as="geometry" />
        </mxCell>
        <mxCell id="gcQ1suDMP1nGK7BCTo6g-1" value="`" style="rounded=0;whiteSpace=wrap;html=1;" parent="1" vertex="1">
          <mxGeometry x="1020" y="670" width="190" height="340" as="geometry" />
        </mxCell>
        <mxCell id="gcQ1suDMP1nGK7BCTo6g-2" value="&lt;div&gt;&amp;lt;&amp;lt;model&amp;gt;&amp;gt;&lt;/div&gt;&lt;div&gt;Review&lt;br&gt;&lt;/div&gt;" style="text;html=1;strokeColor=none;fillColor=none;align=center;verticalAlign=middle;whiteSpace=wrap;rounded=0;" parent="1" vertex="1">
          <mxGeometry x="1060" y="660" width="100" height="60" as="geometry" />
        </mxCell>
        <mxCell id="Ssm8xMKd7hqV9PYRR5O3-2" value="&lt;div&gt;+UpdateReview(Did,rating)&lt;/div&gt;&lt;div&gt;&lt;br&gt;&lt;/div&gt;" style="text;html=1;strokeColor=none;fillColor=none;align=left;verticalAlign=middle;whiteSpace=wrap;rounded=0;" parent="1" vertex="1">
          <mxGeometry x="1020" y="860" width="190" height="30" as="geometry" />
        </mxCell>
        <mxCell id="x49nOOCQCqg0E1T10P1S-2" value="-reviewID" style="text;html=1;strokeColor=none;fillColor=none;align=left;verticalAlign=middle;whiteSpace=wrap;rounded=0;" parent="1" vertex="1">
          <mxGeometry x="1020" y="710" width="190" height="30" as="geometry" />
        </mxCell>
        <mxCell id="x49nOOCQCqg0E1T10P1S-13" value="+getReviews(Did)" style="text;html=1;strokeColor=none;fillColor=none;align=center;verticalAlign=middle;whiteSpace=wrap;rounded=0;" parent="1" vertex="1">
          <mxGeometry x="1015" y="500" width="60" height="30" as="geometry" />
        </mxCell>
        <mxCell id="IHPClqDvV630Yt_NyeOv-2" value="" style="endArrow=none;html=1;rounded=0;" edge="1" parent="1">
          <mxGeometry width="50" height="50" relative="1" as="geometry">
            <mxPoint x="1020" y="710" as="sourcePoint" />
            <mxPoint x="1210" y="710" as="targetPoint" />
            <Array as="points">
              <mxPoint x="1060" y="710" />
            </Array>
          </mxGeometry>
        </mxCell>
        <mxCell id="IHPClqDvV630Yt_NyeOv-3" value="-patientID" style="text;html=1;strokeColor=none;fillColor=none;align=left;verticalAlign=middle;whiteSpace=wrap;rounded=0;" vertex="1" parent="1">
          <mxGeometry x="1020" y="740" width="190" height="30" as="geometry" />
        </mxCell>
        <mxCell id="IHPClqDvV630Yt_NyeOv-4" value="- doctorID" style="text;html=1;strokeColor=none;fillColor=none;align=left;verticalAlign=middle;whiteSpace=wrap;rounded=0;" vertex="1" parent="1">
          <mxGeometry x="1020" y="770" width="190" height="30" as="geometry" />
        </mxCell>
        <mxCell id="IHPClqDvV630Yt_NyeOv-5" value="-rating" style="text;html=1;strokeColor=none;fillColor=none;align=left;verticalAlign=middle;whiteSpace=wrap;rounded=0;" vertex="1" parent="1">
          <mxGeometry x="1020" y="800" width="190" height="30" as="geometry" />
        </mxCell>
        <mxCell id="IHPClqDvV630Yt_NyeOv-6" value="- comment" style="text;html=1;strokeColor=none;fillColor=none;align=left;verticalAlign=middle;whiteSpace=wrap;rounded=0;" vertex="1" parent="1">
          <mxGeometry x="1020" y="830" width="190" height="30" as="geometry" />
        </mxCell>
        <mxCell id="IHPClqDvV630Yt_NyeOv-9" value="" style="endArrow=none;html=1;rounded=0;" edge="1" parent="1">
          <mxGeometry width="50" height="50" relative="1" as="geometry">
            <mxPoint x="1020" y="859" as="sourcePoint" />
            <mxPoint x="1210" y="859" as="targetPoint" />
          </mxGeometry>
        </mxCell>
        <mxCell id="IHPClqDvV630Yt_NyeOv-10" value="&lt;div&gt;+ getReview(doctor ID)&lt;/div&gt;" style="text;html=1;strokeColor=none;fillColor=none;align=left;verticalAlign=middle;whiteSpace=wrap;rounded=0;" vertex="1" parent="1">
          <mxGeometry x="1020" y="890" width="190" height="30" as="geometry" />
        </mxCell>
        <mxCell id="IHPClqDvV630Yt_NyeOv-11" value="&lt;div&gt;+ addNewComment(doctor ID)&lt;/div&gt;" style="text;html=1;strokeColor=none;fillColor=none;align=left;verticalAlign=middle;whiteSpace=wrap;rounded=0;" vertex="1" parent="1">
          <mxGeometry x="1020" y="930" width="190" height="30" as="geometry" />
        </mxCell>
        <mxCell id="IHPClqDvV630Yt_NyeOv-12" value="&lt;div&gt;+ getComment(doctor ID)&lt;/div&gt;" style="text;html=1;strokeColor=none;fillColor=none;align=left;verticalAlign=middle;whiteSpace=wrap;rounded=0;" vertex="1" parent="1">
          <mxGeometry x="1020" y="970" width="190" height="30" as="geometry" />
        </mxCell>
      </root>
    </mxGraphModel>
  </diagram>
  <diagram id="4tyRYNs6lP_VQwVB6I-c" name="Appointment">
    <mxGraphModel dx="1434" dy="765" grid="1" gridSize="10" guides="1" tooltips="1" connect="1" arrows="1" fold="1" page="1" pageScale="1" pageWidth="850" pageHeight="1100" math="0" shadow="0">
      <root>
        <mxCell id="0" />
        <mxCell id="1" parent="0" />
        <mxCell id="3iozVb5vcWy_gj1f75FB-11" style="edgeStyle=orthogonalEdgeStyle;rounded=0;orthogonalLoop=1;jettySize=auto;html=1;entryX=1.013;entryY=0.533;entryDx=0;entryDy=0;entryPerimeter=0;" parent="1" source="NdhS8b43Ejj1a18yJw5R-2" target="TOoFE11WURXNayZBD-dh-5" edge="1">
          <mxGeometry relative="1" as="geometry" />
        </mxCell>
        <mxCell id="NdhS8b43Ejj1a18yJw5R-2" value="" style="rounded=0;whiteSpace=wrap;html=1;" parent="1" vertex="1">
          <mxGeometry x="800" y="170" width="210" height="210" as="geometry" />
        </mxCell>
        <mxCell id="QfA7BQt6moT_DF0dY41K-1" value="&amp;lt;&amp;lt;model&amp;gt;&amp;gt;&lt;br&gt;Appointment" style="text;html=1;strokeColor=none;fillColor=none;align=center;verticalAlign=middle;whiteSpace=wrap;rounded=0;" parent="1" vertex="1">
          <mxGeometry x="875" y="170" width="60" height="30" as="geometry" />
        </mxCell>
        <mxCell id="QfA7BQt6moT_DF0dY41K-2" value="" style="endArrow=none;html=1;rounded=0;entryX=0.999;entryY=0.054;entryDx=0;entryDy=0;entryPerimeter=0;" parent="1" edge="1">
          <mxGeometry width="50" height="50" relative="1" as="geometry">
            <mxPoint x="800" y="199.31" as="sourcePoint" />
            <mxPoint x="1009.9999999999999" y="199.31000000000006" as="targetPoint" />
          </mxGeometry>
        </mxCell>
        <mxCell id="3iozVb5vcWy_gj1f75FB-12" style="edgeStyle=orthogonalEdgeStyle;rounded=0;orthogonalLoop=1;jettySize=auto;html=1;entryX=-0.014;entryY=0.533;entryDx=0;entryDy=0;entryPerimeter=0;" parent="1" source="t7TTjjB1i-nPR1376dSm-1" target="TOoFE11WURXNayZBD-dh-5" edge="1">
          <mxGeometry relative="1" as="geometry" />
        </mxCell>
        <mxCell id="t7TTjjB1i-nPR1376dSm-1" value="" style="rounded=0;whiteSpace=wrap;html=1;" parent="1" vertex="1">
          <mxGeometry x="20" y="170" width="190" height="110" as="geometry" />
        </mxCell>
        <mxCell id="t7TTjjB1i-nPR1376dSm-2" value="" style="endArrow=none;html=1;rounded=0;" parent="1" edge="1">
          <mxGeometry width="50" height="50" relative="1" as="geometry">
            <mxPoint x="20" y="200" as="sourcePoint" />
            <mxPoint x="210" y="200" as="targetPoint" />
          </mxGeometry>
        </mxCell>
        <mxCell id="t7TTjjB1i-nPR1376dSm-3" value="&amp;lt;&amp;lt;view&amp;gt;&amp;gt;&lt;br&gt;AppointmentUI" style="text;html=1;strokeColor=none;fillColor=none;align=center;verticalAlign=middle;whiteSpace=wrap;rounded=0;" parent="1" vertex="1">
          <mxGeometry x="85" y="170" width="60" height="30" as="geometry" />
        </mxCell>
        <mxCell id="TOoFE11WURXNayZBD-dh-1" value="" style="endArrow=none;html=1;rounded=0;" parent="1" edge="1">
          <mxGeometry width="50" height="50" relative="1" as="geometry">
            <mxPoint x="20" y="210" as="sourcePoint" />
            <mxPoint x="210" y="210" as="targetPoint" />
          </mxGeometry>
        </mxCell>
        <mxCell id="TOoFE11WURXNayZBD-dh-2" value="+ getAvailableSlots()" style="text;html=1;strokeColor=none;fillColor=none;align=left;verticalAlign=middle;whiteSpace=wrap;rounded=0;" parent="1" vertex="1">
          <mxGeometry x="20" y="210" width="190" height="20" as="geometry" />
        </mxCell>
        <mxCell id="TOoFE11WURXNayZBD-dh-3" value="+ inputAppointmentInfo()" style="text;html=1;strokeColor=none;fillColor=none;align=left;verticalAlign=middle;whiteSpace=wrap;rounded=0;" parent="1" vertex="1">
          <mxGeometry x="20" y="230" width="190" height="20" as="geometry" />
        </mxCell>
        <mxCell id="TOoFE11WURXNayZBD-dh-5" value="" style="rounded=0;whiteSpace=wrap;html=1;" parent="1" vertex="1">
          <mxGeometry x="280" y="170" width="320" height="160" as="geometry" />
        </mxCell>
        <mxCell id="TOoFE11WURXNayZBD-dh-7" value="" style="endArrow=none;html=1;rounded=0;" parent="1" edge="1">
          <mxGeometry width="50" height="50" relative="1" as="geometry">
            <mxPoint x="280" y="219.66" as="sourcePoint" />
            <mxPoint x="600" y="219.66" as="targetPoint" />
          </mxGeometry>
        </mxCell>
        <mxCell id="TOoFE11WURXNayZBD-dh-10" value="&amp;lt;&amp;lt;control&amp;gt;&amp;gt;&lt;br&gt;Appointment Controller" style="text;html=1;strokeColor=none;fillColor=none;align=center;verticalAlign=middle;whiteSpace=wrap;rounded=0;" parent="1" vertex="1">
          <mxGeometry x="395" y="180" width="60" height="30" as="geometry" />
        </mxCell>
        <mxCell id="TOoFE11WURXNayZBD-dh-11" value="+ retrieveAvailableSlots(doctorID)" style="text;html=1;strokeColor=none;fillColor=none;align=left;verticalAlign=middle;whiteSpace=wrap;rounded=0;" parent="1" vertex="1">
          <mxGeometry x="280" y="245" width="230" height="25" as="geometry" />
        </mxCell>
        <mxCell id="TOoFE11WURXNayZBD-dh-12" value="+ addAppointment(patientID, doctorID, timeSlot, location)" style="text;html=1;strokeColor=none;fillColor=none;align=left;verticalAlign=middle;whiteSpace=wrap;rounded=0;" parent="1" vertex="1">
          <mxGeometry x="280" y="270" width="320" height="25" as="geometry" />
        </mxCell>
        <mxCell id="TOoFE11WURXNayZBD-dh-13" value="" style="endArrow=none;html=1;rounded=0;" parent="1" edge="1">
          <mxGeometry width="50" height="50" relative="1" as="geometry">
            <mxPoint x="800" y="340" as="sourcePoint" />
            <mxPoint x="1010" y="340" as="targetPoint" />
          </mxGeometry>
        </mxCell>
        <mxCell id="TOoFE11WURXNayZBD-dh-14" value="" style="endArrow=none;html=1;rounded=0;" parent="1" edge="1">
          <mxGeometry width="50" height="50" relative="1" as="geometry">
            <mxPoint x="280" y="229.31" as="sourcePoint" />
            <mxPoint x="600" y="229.31" as="targetPoint" />
          </mxGeometry>
        </mxCell>
        <mxCell id="TOoFE11WURXNayZBD-dh-15" value="- appointmentID" style="text;html=1;strokeColor=none;fillColor=none;align=left;verticalAlign=middle;whiteSpace=wrap;rounded=0;" parent="1" vertex="1">
          <mxGeometry x="800" y="210" width="210" height="20" as="geometry" />
        </mxCell>
        <mxCell id="TOoFE11WURXNayZBD-dh-16" value="- patientID" style="text;html=1;strokeColor=none;fillColor=none;align=left;verticalAlign=middle;whiteSpace=wrap;rounded=0;" parent="1" vertex="1">
          <mxGeometry x="800" y="230" width="210" height="20" as="geometry" />
        </mxCell>
        <mxCell id="TOoFE11WURXNayZBD-dh-17" value="- doctorID" style="text;html=1;strokeColor=none;fillColor=none;align=left;verticalAlign=middle;whiteSpace=wrap;rounded=0;" parent="1" vertex="1">
          <mxGeometry x="800" y="250" width="210" height="20" as="geometry" />
        </mxCell>
        <mxCell id="TOoFE11WURXNayZBD-dh-18" value="- timeSlot" style="text;html=1;strokeColor=none;fillColor=none;align=left;verticalAlign=middle;whiteSpace=wrap;rounded=0;" parent="1" vertex="1">
          <mxGeometry x="800" y="270" width="210" height="20" as="geometry" />
        </mxCell>
        <mxCell id="3iozVb5vcWy_gj1f75FB-1" value="- location" style="text;html=1;strokeColor=none;fillColor=none;align=left;verticalAlign=middle;whiteSpace=wrap;rounded=0;" parent="1" vertex="1">
          <mxGeometry x="800" y="290" width="210" height="20" as="geometry" />
        </mxCell>
        <mxCell id="3iozVb5vcWy_gj1f75FB-2" value="- status" style="text;html=1;strokeColor=none;fillColor=none;align=left;verticalAlign=middle;whiteSpace=wrap;rounded=0;" parent="1" vertex="1">
          <mxGeometry x="800" y="310" width="210" height="20" as="geometry" />
        </mxCell>
        <mxCell id="3iozVb5vcWy_gj1f75FB-10" style="edgeStyle=orthogonalEdgeStyle;rounded=0;orthogonalLoop=1;jettySize=auto;html=1;entryX=0.5;entryY=1;entryDx=0;entryDy=0;" parent="1" source="3iozVb5vcWy_gj1f75FB-3" target="TOoFE11WURXNayZBD-dh-5" edge="1">
          <mxGeometry relative="1" as="geometry" />
        </mxCell>
        <mxCell id="3iozVb5vcWy_gj1f75FB-3" value="" style="rounded=0;whiteSpace=wrap;html=1;" parent="1" vertex="1">
          <mxGeometry x="293.75" y="530" width="292.5" height="190" as="geometry" />
        </mxCell>
        <mxCell id="3iozVb5vcWy_gj1f75FB-4" value="" style="endArrow=none;html=1;rounded=0;" parent="1" edge="1">
          <mxGeometry width="50" height="50" relative="1" as="geometry">
            <mxPoint x="293.75" y="570" as="sourcePoint" />
            <mxPoint x="588.75" y="570" as="targetPoint" />
          </mxGeometry>
        </mxCell>
        <mxCell id="3iozVb5vcWy_gj1f75FB-5" value="&amp;lt;&amp;lt;mode&amp;gt;&amp;gt;&lt;br&gt;Time Slots" style="text;html=1;strokeColor=none;fillColor=none;align=center;verticalAlign=middle;whiteSpace=wrap;rounded=0;" parent="1" vertex="1">
          <mxGeometry x="410" y="535" width="60" height="30" as="geometry" />
        </mxCell>
        <mxCell id="3iozVb5vcWy_gj1f75FB-6" value="- doctorID" style="text;html=1;strokeColor=none;fillColor=none;align=left;verticalAlign=middle;whiteSpace=wrap;rounded=0;" parent="1" vertex="1">
          <mxGeometry x="291.25" y="580" width="195" height="20" as="geometry" />
        </mxCell>
        <mxCell id="3iozVb5vcWy_gj1f75FB-7" value="- availableTime[]" style="text;html=1;strokeColor=none;fillColor=none;align=left;verticalAlign=middle;whiteSpace=wrap;rounded=0;" parent="1" vertex="1">
          <mxGeometry x="291.25" y="600" width="195" height="20" as="geometry" />
        </mxCell>
        <mxCell id="3iozVb5vcWy_gj1f75FB-8" value="" style="endArrow=none;html=1;rounded=0;" parent="1" edge="1">
          <mxGeometry width="50" height="50" relative="1" as="geometry">
            <mxPoint x="292.5" y="630" as="sourcePoint" />
            <mxPoint x="587.5" y="630" as="targetPoint" />
          </mxGeometry>
        </mxCell>
        <mxCell id="3iozVb5vcWy_gj1f75FB-9" value="+ getTimeSlots(doctorID)" style="text;html=1;strokeColor=none;fillColor=none;align=left;verticalAlign=middle;whiteSpace=wrap;rounded=0;" parent="1" vertex="1">
          <mxGeometry x="293.75" y="630" width="195" height="20" as="geometry" />
        </mxCell>
        <mxCell id="3iozVb5vcWy_gj1f75FB-13" value="+ retrieveAppointment()" style="text;html=1;strokeColor=none;fillColor=none;align=left;verticalAlign=middle;whiteSpace=wrap;rounded=0;" parent="1" vertex="1">
          <mxGeometry x="280" y="295" width="310" height="20" as="geometry" />
        </mxCell>
        <mxCell id="3iozVb5vcWy_gj1f75FB-15" value="+ getAppointment()" style="text;html=1;strokeColor=none;fillColor=none;align=left;verticalAlign=middle;whiteSpace=wrap;rounded=0;" parent="1" vertex="1">
          <mxGeometry x="800" y="350" width="210" height="20" as="geometry" />
        </mxCell>
        <mxCell id="3iozVb5vcWy_gj1f75FB-16" value="+ showAppointmentInfo()" style="text;html=1;strokeColor=none;fillColor=none;align=left;verticalAlign=middle;whiteSpace=wrap;rounded=0;" parent="1" vertex="1">
          <mxGeometry x="20" y="250" width="190" height="20" as="geometry" />
        </mxCell>
        <mxCell id="MeHtiosd6k1FxCkfDOwj-1" value="+ addAppointment(doctor ID, time slot)" style="text;html=1;strokeColor=none;fillColor=none;align=left;verticalAlign=middle;whiteSpace=wrap;rounded=0;" parent="1" vertex="1">
          <mxGeometry x="291.25" y="660" width="272.5" height="20" as="geometry" />
        </mxCell>
        <mxCell id="MeHtiosd6k1FxCkfDOwj-3" value="+ updateAvailableTime(Doctor ID, time slot)" style="text;html=1;strokeColor=none;fillColor=none;align=left;verticalAlign=middle;whiteSpace=wrap;rounded=0;" parent="1" vertex="1">
          <mxGeometry x="291.25" y="690" width="268.75" height="20" as="geometry" />
        </mxCell>
      </root>
    </mxGraphModel>
  </diagram>
  <diagram id="b4dKi14L8exSI4oGxl9a" name="Doctor Dashboard">
    <mxGraphModel dx="690" dy="1275" grid="1" gridSize="10" guides="1" tooltips="1" connect="1" arrows="1" fold="1" page="1" pageScale="1" pageWidth="850" pageHeight="1100" math="0" shadow="0">
      <root>
        <mxCell id="0" />
        <mxCell id="1" parent="0" />
        <mxCell id="nEaENF9WNAcFBXrvfrjo-7" style="edgeStyle=orthogonalEdgeStyle;rounded=0;orthogonalLoop=1;jettySize=auto;html=1;entryX=1;entryY=0.5;entryDx=0;entryDy=0;" parent="1" source="ZDvJnvGeZI3quZu3oyrA-1" target="ym512Or-ztGf-E1aTZjS-7" edge="1">
          <mxGeometry relative="1" as="geometry" />
        </mxCell>
        <mxCell id="ZDvJnvGeZI3quZu3oyrA-1" value="" style="rounded=0;whiteSpace=wrap;html=1;" parent="1" vertex="1">
          <mxGeometry x="2870" y="95" width="230" height="420" as="geometry" />
        </mxCell>
        <mxCell id="ZDvJnvGeZI3quZu3oyrA-2" value="" style="endArrow=none;html=1;rounded=0;" parent="1" edge="1">
          <mxGeometry width="50" height="50" relative="1" as="geometry">
            <mxPoint x="2870" y="145" as="sourcePoint" />
            <mxPoint x="3100" y="145" as="targetPoint" />
            <Array as="points">
              <mxPoint x="2990" y="145" />
              <mxPoint x="3100" y="145" />
            </Array>
          </mxGeometry>
        </mxCell>
        <mxCell id="ZDvJnvGeZI3quZu3oyrA-3" value="&amp;lt;&amp;lt;model&amp;gt;&amp;gt;" style="text;html=1;strokeColor=none;fillColor=none;align=center;verticalAlign=middle;whiteSpace=wrap;rounded=0;" parent="1" vertex="1">
          <mxGeometry x="2955" y="105" width="60" height="20" as="geometry" />
        </mxCell>
        <mxCell id="ZDvJnvGeZI3quZu3oyrA-4" value="Doctor" style="text;html=1;strokeColor=none;fillColor=none;align=center;verticalAlign=middle;whiteSpace=wrap;rounded=0;" parent="1" vertex="1">
          <mxGeometry x="2955" y="125" width="60" height="20" as="geometry" />
        </mxCell>
        <mxCell id="ZDvJnvGeZI3quZu3oyrA-5" value="- Doctor ID" style="text;html=1;strokeColor=none;fillColor=none;align=left;verticalAlign=middle;whiteSpace=wrap;rounded=0;" parent="1" vertex="1">
          <mxGeometry x="2870" y="155" width="230" height="20" as="geometry" />
        </mxCell>
        <mxCell id="ZDvJnvGeZI3quZu3oyrA-6" value="- Name" style="text;html=1;strokeColor=none;fillColor=none;align=left;verticalAlign=middle;whiteSpace=wrap;rounded=0;" parent="1" vertex="1">
          <mxGeometry x="2870" y="175" width="230" height="20" as="geometry" />
        </mxCell>
        <mxCell id="ZDvJnvGeZI3quZu3oyrA-7" value="- Speciality" style="text;html=1;strokeColor=none;fillColor=none;align=left;verticalAlign=middle;whiteSpace=wrap;rounded=0;" parent="1" vertex="1">
          <mxGeometry x="2870" y="215" width="230" height="20" as="geometry" />
        </mxCell>
        <mxCell id="ZDvJnvGeZI3quZu3oyrA-8" value="- Gender" style="text;html=1;strokeColor=none;fillColor=none;align=left;verticalAlign=middle;whiteSpace=wrap;rounded=0;" parent="1" vertex="1">
          <mxGeometry x="2870" y="235" width="230" height="20" as="geometry" />
        </mxCell>
        <mxCell id="ZDvJnvGeZI3quZu3oyrA-9" value="- Chamber location[]" style="text;html=1;strokeColor=none;fillColor=none;align=left;verticalAlign=middle;whiteSpace=wrap;rounded=0;" parent="1" vertex="1">
          <mxGeometry x="2870" y="255" width="230" height="20" as="geometry" />
        </mxCell>
        <mxCell id="ZDvJnvGeZI3quZu3oyrA-10" value="- Affiliated Hospital" style="text;html=1;strokeColor=none;fillColor=none;align=left;verticalAlign=middle;whiteSpace=wrap;rounded=0;" parent="1" vertex="1">
          <mxGeometry x="2870" y="275" width="230" height="20" as="geometry" />
        </mxCell>
        <mxCell id="ZDvJnvGeZI3quZu3oyrA-11" value="- Degree[]" style="text;html=1;strokeColor=none;fillColor=none;align=left;verticalAlign=middle;whiteSpace=wrap;rounded=0;" parent="1" vertex="1">
          <mxGeometry x="2870" y="295" width="230" height="20" as="geometry" />
        </mxCell>
        <mxCell id="ZDvJnvGeZI3quZu3oyrA-12" value="- Domain" style="text;html=1;strokeColor=none;fillColor=none;align=left;verticalAlign=middle;whiteSpace=wrap;rounded=0;" parent="1" vertex="1">
          <mxGeometry x="2870" y="195" width="230" height="20" as="geometry" />
        </mxCell>
        <mxCell id="ZDvJnvGeZI3quZu3oyrA-13" value="" style="endArrow=none;html=1;rounded=0;" parent="1" target="ZDvJnvGeZI3quZu3oyrA-1" edge="1">
          <mxGeometry width="50" height="50" relative="1" as="geometry">
            <mxPoint x="2870" y="335" as="sourcePoint" />
            <mxPoint x="2920" y="285" as="targetPoint" />
            <Array as="points">
              <mxPoint x="3100" y="335" />
            </Array>
          </mxGeometry>
        </mxCell>
        <mxCell id="ZDvJnvGeZI3quZu3oyrA-14" value="+ getByName(name)" style="text;html=1;strokeColor=none;fillColor=none;align=left;verticalAlign=middle;whiteSpace=wrap;rounded=0;" parent="1" vertex="1">
          <mxGeometry x="2870" y="335" width="230" height="30" as="geometry" />
        </mxCell>
        <mxCell id="ZDvJnvGeZI3quZu3oyrA-15" value="+ getByLocation(location)" style="text;html=1;strokeColor=none;fillColor=none;align=left;verticalAlign=middle;whiteSpace=wrap;rounded=0;" parent="1" vertex="1">
          <mxGeometry x="2870" y="365" width="230" height="30" as="geometry" />
        </mxCell>
        <mxCell id="ZDvJnvGeZI3quZu3oyrA-16" value="+ getByGender(gender)" style="text;html=1;strokeColor=none;fillColor=none;align=left;verticalAlign=middle;whiteSpace=wrap;rounded=0;" parent="1" vertex="1">
          <mxGeometry x="2870" y="395" width="230" height="30" as="geometry" />
        </mxCell>
        <mxCell id="ZDvJnvGeZI3quZu3oyrA-17" value="+ getByHospital(hospital)" style="text;html=1;strokeColor=none;fillColor=none;align=left;verticalAlign=middle;whiteSpace=wrap;rounded=0;" parent="1" vertex="1">
          <mxGeometry x="2870" y="425" width="230" height="30" as="geometry" />
        </mxCell>
        <mxCell id="ZDvJnvGeZI3quZu3oyrA-18" value="+ getBySpeciality(speciality)" style="text;html=1;strokeColor=none;fillColor=none;align=left;verticalAlign=middle;whiteSpace=wrap;rounded=0;" parent="1" vertex="1">
          <mxGeometry x="2870" y="455" width="230" height="30" as="geometry" />
        </mxCell>
        <mxCell id="ZDvJnvGeZI3quZu3oyrA-19" value="+ getByDomain(domain)" style="text;html=1;strokeColor=none;fillColor=none;align=left;verticalAlign=middle;whiteSpace=wrap;rounded=0;" parent="1" vertex="1">
          <mxGeometry x="2870" y="485" width="230" height="30" as="geometry" />
        </mxCell>
        <mxCell id="nEaENF9WNAcFBXrvfrjo-6" style="edgeStyle=orthogonalEdgeStyle;rounded=0;orthogonalLoop=1;jettySize=auto;html=1;" parent="1" source="wydm740WZNhb-76n2AKa-1" edge="1">
          <mxGeometry relative="1" as="geometry">
            <mxPoint x="2260" y="285" as="targetPoint" />
          </mxGeometry>
        </mxCell>
        <mxCell id="wydm740WZNhb-76n2AKa-1" value="" style="rounded=0;whiteSpace=wrap;html=1;" parent="1" vertex="1">
          <mxGeometry x="1790" y="150" width="350" height="320" as="geometry" />
        </mxCell>
        <mxCell id="wydm740WZNhb-76n2AKa-2" value="" style="endArrow=none;html=1;rounded=0;" parent="1" edge="1">
          <mxGeometry width="50" height="50" relative="1" as="geometry">
            <mxPoint x="1790" y="199.5" as="sourcePoint" />
            <mxPoint x="2140" y="199.5" as="targetPoint" />
          </mxGeometry>
        </mxCell>
        <mxCell id="wydm740WZNhb-76n2AKa-3" value="&amp;lt;&amp;lt;view&amp;gt;&amp;gt;&lt;br&gt;Doctor Dashboard UI" style="text;html=1;strokeColor=none;fillColor=none;align=center;verticalAlign=middle;whiteSpace=wrap;rounded=0;" parent="1" vertex="1">
          <mxGeometry x="1890" y="160" width="150" height="30" as="geometry" />
        </mxCell>
        <mxCell id="lN0L8RWfIvj9b81D81l6-1" value="" style="endArrow=none;html=1;rounded=0;" parent="1" edge="1">
          <mxGeometry width="50" height="50" relative="1" as="geometry">
            <mxPoint x="1790" y="219.5" as="sourcePoint" />
            <mxPoint x="2140" y="219.5" as="targetPoint" />
          </mxGeometry>
        </mxCell>
        <mxCell id="lN0L8RWfIvj9b81D81l6-2" value="+ viewMyDetails()" style="text;html=1;strokeColor=none;fillColor=none;align=left;verticalAlign=middle;whiteSpace=wrap;rounded=0;" parent="1" vertex="1">
          <mxGeometry x="1790" y="230" width="350" height="30" as="geometry" />
        </mxCell>
        <mxCell id="lN0L8RWfIvj9b81D81l6-3" value="+ editMyDetails()" style="text;html=1;strokeColor=none;fillColor=none;align=left;verticalAlign=middle;whiteSpace=wrap;rounded=0;" parent="1" vertex="1">
          <mxGeometry x="1790" y="260" width="350" height="30" as="geometry" />
        </mxCell>
        <mxCell id="lN0L8RWfIvj9b81D81l6-4" value="+ viewMyAppointments()" style="text;html=1;strokeColor=none;fillColor=none;align=left;verticalAlign=middle;whiteSpace=wrap;rounded=0;" parent="1" vertex="1">
          <mxGeometry x="1790" y="290" width="350" height="30" as="geometry" />
        </mxCell>
        <mxCell id="lN0L8RWfIvj9b81D81l6-5" value="+ viewMyAvailableSlots()" style="text;html=1;strokeColor=none;fillColor=none;align=left;verticalAlign=middle;whiteSpace=wrap;rounded=0;" parent="1" vertex="1">
          <mxGeometry x="1790" y="320" width="350" height="30" as="geometry" />
        </mxCell>
        <mxCell id="lN0L8RWfIvj9b81D81l6-6" value="+ viewNotification()" style="text;html=1;strokeColor=none;fillColor=none;align=left;verticalAlign=middle;whiteSpace=wrap;rounded=0;" parent="1" vertex="1">
          <mxGeometry x="1790" y="350" width="350" height="30" as="geometry" />
        </mxCell>
        <mxCell id="ym512Or-ztGf-E1aTZjS-1" value="" style="rounded=0;whiteSpace=wrap;html=1;" parent="1" vertex="1">
          <mxGeometry x="2270" y="150" width="350" height="300" as="geometry" />
        </mxCell>
        <mxCell id="ym512Or-ztGf-E1aTZjS-2" value="" style="endArrow=none;html=1;rounded=0;" parent="1" edge="1">
          <mxGeometry width="50" height="50" relative="1" as="geometry">
            <mxPoint x="2270" y="199.5" as="sourcePoint" />
            <mxPoint x="2620" y="199.5" as="targetPoint" />
          </mxGeometry>
        </mxCell>
        <mxCell id="ym512Or-ztGf-E1aTZjS-3" value="&amp;lt;&amp;lt;controller&amp;gt;&amp;gt;&lt;br&gt;Doctor Dashboard controller" style="text;html=1;strokeColor=none;fillColor=none;align=center;verticalAlign=middle;whiteSpace=wrap;rounded=0;" parent="1" vertex="1">
          <mxGeometry x="2350" y="160" width="190" height="30" as="geometry" />
        </mxCell>
        <mxCell id="ym512Or-ztGf-E1aTZjS-4" value="" style="endArrow=none;html=1;rounded=0;" parent="1" edge="1">
          <mxGeometry width="50" height="50" relative="1" as="geometry">
            <mxPoint x="2270" y="219.5" as="sourcePoint" />
            <mxPoint x="2620" y="219.5" as="targetPoint" />
          </mxGeometry>
        </mxCell>
        <mxCell id="ym512Or-ztGf-E1aTZjS-5" value="+ retrieveDetails(doctor ID)" style="text;html=1;strokeColor=none;fillColor=none;align=left;verticalAlign=middle;whiteSpace=wrap;rounded=0;" parent="1" vertex="1">
          <mxGeometry x="2270" y="230" width="350" height="30" as="geometry" />
        </mxCell>
        <mxCell id="ym512Or-ztGf-E1aTZjS-6" value="+ updateDetails()" style="text;html=1;strokeColor=none;fillColor=none;align=left;verticalAlign=middle;whiteSpace=wrap;rounded=0;" parent="1" vertex="1">
          <mxGeometry x="2270" y="260" width="350" height="30" as="geometry" />
        </mxCell>
        <mxCell id="ym512Or-ztGf-E1aTZjS-7" value="+ retrieveAppointments(doctor ID)" style="text;html=1;strokeColor=none;fillColor=none;align=left;verticalAlign=middle;whiteSpace=wrap;rounded=0;" parent="1" vertex="1">
          <mxGeometry x="2270" y="290" width="350" height="30" as="geometry" />
        </mxCell>
        <mxCell id="ym512Or-ztGf-E1aTZjS-8" value="+ retrieveAvailableSlots(doctor ID)" style="text;html=1;strokeColor=none;fillColor=none;align=left;verticalAlign=middle;whiteSpace=wrap;rounded=0;" parent="1" vertex="1">
          <mxGeometry x="2270" y="320" width="350" height="30" as="geometry" />
        </mxCell>
        <mxCell id="ym512Or-ztGf-E1aTZjS-9" value="+ retrieveNotification()" style="text;html=1;strokeColor=none;fillColor=none;align=left;verticalAlign=middle;whiteSpace=wrap;rounded=0;" parent="1" vertex="1">
          <mxGeometry x="2270" y="350" width="350" height="30" as="geometry" />
        </mxCell>
        <mxCell id="nEaENF9WNAcFBXrvfrjo-2" style="edgeStyle=orthogonalEdgeStyle;rounded=0;orthogonalLoop=1;jettySize=auto;html=1;entryX=0.231;entryY=0.996;entryDx=0;entryDy=0;entryPerimeter=0;" parent="1" source="i7YTZvHvlNXJMQntmhiD-1" target="ym512Or-ztGf-E1aTZjS-1" edge="1">
          <mxGeometry relative="1" as="geometry" />
        </mxCell>
        <mxCell id="nEaENF9WNAcFBXrvfrjo-4" style="edgeStyle=orthogonalEdgeStyle;rounded=0;orthogonalLoop=1;jettySize=auto;html=1;entryX=0.462;entryY=1.003;entryDx=0;entryDy=0;entryPerimeter=0;" parent="1" source="i7YTZvHvlNXJMQntmhiD-1" target="Dw74RjRzHC77dtUZHwFT-1" edge="1">
          <mxGeometry relative="1" as="geometry">
            <Array as="points">
              <mxPoint x="2605" y="1200" />
            </Array>
          </mxGeometry>
        </mxCell>
        <mxCell id="i7YTZvHvlNXJMQntmhiD-1" value="" style="rounded=0;whiteSpace=wrap;html=1;" parent="1" vertex="1">
          <mxGeometry x="2180" y="1080" width="340" height="220" as="geometry" />
        </mxCell>
        <mxCell id="i7YTZvHvlNXJMQntmhiD-2" value="" style="endArrow=none;html=1;rounded=0;" parent="1" edge="1">
          <mxGeometry width="50" height="50" relative="1" as="geometry">
            <mxPoint x="2180" y="1129.5" as="sourcePoint" />
            <mxPoint x="2520" y="1129.5" as="targetPoint" />
          </mxGeometry>
        </mxCell>
        <mxCell id="i7YTZvHvlNXJMQntmhiD-3" value="&amp;lt;&amp;lt;model&amp;gt;&amp;gt;&lt;br&gt;Notification" style="text;html=1;strokeColor=none;fillColor=none;align=center;verticalAlign=middle;whiteSpace=wrap;rounded=0;" parent="1" vertex="1">
          <mxGeometry x="2320" y="1090" width="60" height="30" as="geometry" />
        </mxCell>
        <mxCell id="i7YTZvHvlNXJMQntmhiD-4" value="" style="endArrow=none;html=1;rounded=0;" parent="1" edge="1">
          <mxGeometry width="50" height="50" relative="1" as="geometry">
            <mxPoint x="2180" y="1240" as="sourcePoint" />
            <mxPoint x="2520" y="1240" as="targetPoint" />
          </mxGeometry>
        </mxCell>
        <mxCell id="i7YTZvHvlNXJMQntmhiD-5" value="- Identification" style="text;html=1;strokeColor=none;fillColor=none;align=left;verticalAlign=middle;whiteSpace=wrap;rounded=0;" parent="1" vertex="1">
          <mxGeometry x="2180" y="1140" width="290" height="20" as="geometry" />
        </mxCell>
        <mxCell id="i7YTZvHvlNXJMQntmhiD-6" value="- ID" style="text;html=1;strokeColor=none;fillColor=none;align=left;verticalAlign=middle;whiteSpace=wrap;rounded=0;" parent="1" vertex="1">
          <mxGeometry x="2180" y="1160" width="290" height="20" as="geometry" />
        </mxCell>
        <mxCell id="i7YTZvHvlNXJMQntmhiD-7" value="- Notification ID" style="text;html=1;strokeColor=none;fillColor=none;align=left;verticalAlign=middle;whiteSpace=wrap;rounded=0;" parent="1" vertex="1">
          <mxGeometry x="2180" y="1180" width="290" height="20" as="geometry" />
        </mxCell>
        <mxCell id="i7YTZvHvlNXJMQntmhiD-8" value="- Message" style="text;html=1;strokeColor=none;fillColor=none;align=left;verticalAlign=middle;whiteSpace=wrap;rounded=0;" parent="1" vertex="1">
          <mxGeometry x="2180" y="1210" width="290" height="20" as="geometry" />
        </mxCell>
        <mxCell id="i7YTZvHvlNXJMQntmhiD-9" value="+ createNotification(appointment ID, ID, identification, time)" style="text;html=1;strokeColor=none;fillColor=none;align=left;verticalAlign=middle;whiteSpace=wrap;rounded=0;" parent="1" vertex="1">
          <mxGeometry x="2180" y="1260" width="330" height="20" as="geometry" />
        </mxCell>
        <mxCell id="nEaENF9WNAcFBXrvfrjo-5" style="edgeStyle=orthogonalEdgeStyle;rounded=0;orthogonalLoop=1;jettySize=auto;html=1;entryX=0.617;entryY=1.01;entryDx=0;entryDy=0;entryPerimeter=0;" parent="1" source="HPCW2VbFwzbVV_cVtOWu-1" target="Dw74RjRzHC77dtUZHwFT-1" edge="1">
          <mxGeometry relative="1" as="geometry" />
        </mxCell>
        <mxCell id="HPCW2VbFwzbVV_cVtOWu-1" value="" style="rounded=0;whiteSpace=wrap;html=1;" parent="1" vertex="1">
          <mxGeometry x="2750" y="1080" width="292.5" height="260" as="geometry" />
        </mxCell>
        <mxCell id="HPCW2VbFwzbVV_cVtOWu-2" value="" style="endArrow=none;html=1;rounded=0;" parent="1" edge="1">
          <mxGeometry width="50" height="50" relative="1" as="geometry">
            <mxPoint x="2750" y="1120" as="sourcePoint" />
            <mxPoint x="3045" y="1120" as="targetPoint" />
          </mxGeometry>
        </mxCell>
        <mxCell id="HPCW2VbFwzbVV_cVtOWu-3" value="&amp;lt;&amp;lt;model&amp;gt;&amp;gt;&lt;br&gt;Time Slots" style="text;html=1;strokeColor=none;fillColor=none;align=center;verticalAlign=middle;whiteSpace=wrap;rounded=0;" parent="1" vertex="1">
          <mxGeometry x="2858.13" y="1080" width="60" height="30" as="geometry" />
        </mxCell>
        <mxCell id="HPCW2VbFwzbVV_cVtOWu-4" value="- doctorID" style="text;html=1;strokeColor=none;fillColor=none;align=left;verticalAlign=middle;whiteSpace=wrap;rounded=0;" parent="1" vertex="1">
          <mxGeometry x="2747.5" y="1130" width="195" height="20" as="geometry" />
        </mxCell>
        <mxCell id="HPCW2VbFwzbVV_cVtOWu-5" value="- availableTime[]" style="text;html=1;strokeColor=none;fillColor=none;align=left;verticalAlign=middle;whiteSpace=wrap;rounded=0;" parent="1" vertex="1">
          <mxGeometry x="2747.5" y="1150" width="195" height="20" as="geometry" />
        </mxCell>
        <mxCell id="HPCW2VbFwzbVV_cVtOWu-6" value="" style="endArrow=none;html=1;rounded=0;" parent="1" edge="1">
          <mxGeometry width="50" height="50" relative="1" as="geometry">
            <mxPoint x="2750" y="1220" as="sourcePoint" />
            <mxPoint x="3045" y="1220" as="targetPoint" />
          </mxGeometry>
        </mxCell>
        <mxCell id="HPCW2VbFwzbVV_cVtOWu-7" value="+ getTimeSlots(doctorID)" style="text;html=1;strokeColor=none;fillColor=none;align=left;verticalAlign=middle;whiteSpace=wrap;rounded=0;" parent="1" vertex="1">
          <mxGeometry x="2747.5" y="1240" width="195" height="20" as="geometry" />
        </mxCell>
        <mxCell id="HPCW2VbFwzbVV_cVtOWu-8" value="+ addAppointment(doctor ID, time slot)" style="text;html=1;strokeColor=none;fillColor=none;align=left;verticalAlign=middle;whiteSpace=wrap;rounded=0;" parent="1" vertex="1">
          <mxGeometry x="2750" y="1270" width="272.5" height="20" as="geometry" />
        </mxCell>
        <mxCell id="HPCW2VbFwzbVV_cVtOWu-9" value="- bookedTime[]" style="text;html=1;strokeColor=none;fillColor=none;align=left;verticalAlign=middle;whiteSpace=wrap;rounded=0;" parent="1" vertex="1">
          <mxGeometry x="2750" y="1180" width="195" height="20" as="geometry" />
        </mxCell>
        <mxCell id="HPCW2VbFwzbVV_cVtOWu-10" value="+ updateAvailableTime(Doctor ID, time slot)" style="text;html=1;strokeColor=none;fillColor=none;align=left;verticalAlign=middle;whiteSpace=wrap;rounded=0;" parent="1" vertex="1">
          <mxGeometry x="2753.75" y="1310" width="268.75" height="20" as="geometry" />
        </mxCell>
        <mxCell id="nEaENF9WNAcFBXrvfrjo-1" style="edgeStyle=orthogonalEdgeStyle;rounded=0;orthogonalLoop=1;jettySize=auto;html=1;entryX=0.617;entryY=1;entryDx=0;entryDy=0;entryPerimeter=0;" parent="1" source="Dw74RjRzHC77dtUZHwFT-1" target="ym512Or-ztGf-E1aTZjS-1" edge="1">
          <mxGeometry relative="1" as="geometry" />
        </mxCell>
        <mxCell id="Dw74RjRzHC77dtUZHwFT-1" value="" style="rounded=0;whiteSpace=wrap;html=1;" parent="1" vertex="1">
          <mxGeometry x="2482.5" y="640" width="265" height="300" as="geometry" />
        </mxCell>
        <mxCell id="Dw74RjRzHC77dtUZHwFT-2" value="&amp;lt;&amp;lt;model&amp;gt;&amp;gt;&lt;br&gt;Appointment" style="text;html=1;strokeColor=none;fillColor=none;align=center;verticalAlign=middle;whiteSpace=wrap;rounded=0;" parent="1" vertex="1">
          <mxGeometry x="2585" y="640" width="60" height="30" as="geometry" />
        </mxCell>
        <mxCell id="Dw74RjRzHC77dtUZHwFT-3" value="" style="endArrow=none;html=1;rounded=0;" parent="1" edge="1">
          <mxGeometry width="50" height="50" relative="1" as="geometry">
            <mxPoint x="2480" y="670" as="sourcePoint" />
            <mxPoint x="2750" y="670" as="targetPoint" />
          </mxGeometry>
        </mxCell>
        <mxCell id="Dw74RjRzHC77dtUZHwFT-4" value="" style="endArrow=none;html=1;rounded=0;" parent="1" edge="1">
          <mxGeometry width="50" height="50" relative="1" as="geometry">
            <mxPoint x="2482.5" y="810" as="sourcePoint" />
            <mxPoint x="2747.5" y="810" as="targetPoint" />
          </mxGeometry>
        </mxCell>
        <mxCell id="Dw74RjRzHC77dtUZHwFT-5" value="- appointmentID" style="text;html=1;strokeColor=none;fillColor=none;align=left;verticalAlign=middle;whiteSpace=wrap;rounded=0;" parent="1" vertex="1">
          <mxGeometry x="2482.5" y="680" width="210" height="20" as="geometry" />
        </mxCell>
        <mxCell id="Dw74RjRzHC77dtUZHwFT-6" value="- patientID" style="text;html=1;strokeColor=none;fillColor=none;align=left;verticalAlign=middle;whiteSpace=wrap;rounded=0;" parent="1" vertex="1">
          <mxGeometry x="2482.5" y="700" width="210" height="20" as="geometry" />
        </mxCell>
        <mxCell id="Dw74RjRzHC77dtUZHwFT-7" value="- doctorID" style="text;html=1;strokeColor=none;fillColor=none;align=left;verticalAlign=middle;whiteSpace=wrap;rounded=0;" parent="1" vertex="1">
          <mxGeometry x="2482.5" y="720" width="210" height="20" as="geometry" />
        </mxCell>
        <mxCell id="Dw74RjRzHC77dtUZHwFT-8" value="- timeSlot" style="text;html=1;strokeColor=none;fillColor=none;align=left;verticalAlign=middle;whiteSpace=wrap;rounded=0;" parent="1" vertex="1">
          <mxGeometry x="2482.5" y="740" width="210" height="20" as="geometry" />
        </mxCell>
        <mxCell id="Dw74RjRzHC77dtUZHwFT-9" value="- location" style="text;html=1;strokeColor=none;fillColor=none;align=left;verticalAlign=middle;whiteSpace=wrap;rounded=0;" parent="1" vertex="1">
          <mxGeometry x="2482.5" y="760" width="210" height="20" as="geometry" />
        </mxCell>
        <mxCell id="Dw74RjRzHC77dtUZHwFT-10" value="- status" style="text;html=1;strokeColor=none;fillColor=none;align=left;verticalAlign=middle;whiteSpace=wrap;rounded=0;" parent="1" vertex="1">
          <mxGeometry x="2482.5" y="780" width="210" height="20" as="geometry" />
        </mxCell>
        <mxCell id="Dw74RjRzHC77dtUZHwFT-11" value="+ getAppointment()" style="text;html=1;strokeColor=none;fillColor=none;align=left;verticalAlign=middle;whiteSpace=wrap;rounded=0;" parent="1" vertex="1">
          <mxGeometry x="2482.5" y="820" width="210" height="20" as="geometry" />
        </mxCell>
        <mxCell id="Dw74RjRzHC77dtUZHwFT-12" value="+ geUpcomingAppointments(patient ID)" style="text;html=1;strokeColor=none;fillColor=none;align=left;verticalAlign=middle;whiteSpace=wrap;rounded=0;" parent="1" vertex="1">
          <mxGeometry x="2482.5" y="840" width="265" height="20" as="geometry" />
        </mxCell>
        <mxCell id="Dw74RjRzHC77dtUZHwFT-13" value="+ getAllAppointments(patient ID)" style="text;html=1;strokeColor=none;fillColor=none;align=left;verticalAlign=middle;whiteSpace=wrap;rounded=0;" parent="1" vertex="1">
          <mxGeometry x="2482.5" y="860" width="265" height="20" as="geometry" />
        </mxCell>
        <mxCell id="Dw74RjRzHC77dtUZHwFT-14" value="+ getPreviousAppointments(patient ID)" style="text;html=1;strokeColor=none;fillColor=none;align=left;verticalAlign=middle;whiteSpace=wrap;rounded=0;" parent="1" vertex="1">
          <mxGeometry x="2482.5" y="880" width="265" height="20" as="geometry" />
        </mxCell>
        <mxCell id="Dw74RjRzHC77dtUZHwFT-15" value="+ cancelAppointment(appointmentID)" style="text;html=1;strokeColor=none;fillColor=none;align=left;verticalAlign=middle;whiteSpace=wrap;rounded=0;" parent="1" vertex="1">
          <mxGeometry x="2482.5" y="900" width="265" height="20" as="geometry" />
        </mxCell>
        <mxCell id="Dw74RjRzHC77dtUZHwFT-16" value="+ cancelAppointment()" style="text;html=1;strokeColor=none;fillColor=none;align=left;verticalAlign=middle;whiteSpace=wrap;rounded=0;" parent="1" vertex="1">
          <mxGeometry x="1790" y="380" width="350" height="30" as="geometry" />
        </mxCell>
        <mxCell id="GEaz05zQ6SAfGm4vFWgO-1" value="+ cancelAppointment(appointment ID)" style="text;html=1;strokeColor=none;fillColor=none;align=left;verticalAlign=middle;whiteSpace=wrap;rounded=0;" parent="1" vertex="1">
          <mxGeometry x="2270" y="380" width="350" height="30" as="geometry" />
        </mxCell>
        <mxCell id="ZlouCO4wZ1oIdOZYYDDk-1" value="+ updateAvailableSlot()" style="text;html=1;strokeColor=none;fillColor=none;align=left;verticalAlign=middle;whiteSpace=wrap;rounded=0;" vertex="1" parent="1">
          <mxGeometry x="1790" y="420" width="350" height="30" as="geometry" />
        </mxCell>
        <mxCell id="ZlouCO4wZ1oIdOZYYDDk-2" value="+ updateAvailableSlots (doctor ID, time slot)" style="text;html=1;strokeColor=none;fillColor=none;align=left;verticalAlign=middle;whiteSpace=wrap;rounded=0;" vertex="1" parent="1">
          <mxGeometry x="2270" y="410" width="350" height="30" as="geometry" />
        </mxCell>
      </root>
    </mxGraphModel>
  </diagram>
  <diagram id="s3ZxyfS1__Ygd20Bhwyy" name="Patient Dashboard">
    <mxGraphModel dx="297" dy="612" grid="1" gridSize="10" guides="1" tooltips="1" connect="1" arrows="1" fold="1" page="1" pageScale="1" pageWidth="850" pageHeight="1100" math="0" shadow="0">
      <root>
        <mxCell id="0" />
        <mxCell id="1" parent="0" />
        <mxCell id="Y4NDo9m-WRhYTPNRFLD_-3" style="edgeStyle=orthogonalEdgeStyle;rounded=0;orthogonalLoop=1;jettySize=auto;html=1;entryX=1;entryY=0.5;entryDx=0;entryDy=0;" parent="1" source="5_ABCGyV5lzwghwUcbMz-1" target="5_ABCGyV5lzwghwUcbMz-35" edge="1">
          <mxGeometry relative="1" as="geometry" />
        </mxCell>
        <mxCell id="5_ABCGyV5lzwghwUcbMz-1" value="&lt;&lt;model&gt;&gt;&#xa;Patient" style="swimlane;fontStyle=1;align=center;verticalAlign=middle;childLayout=stackLayout;horizontal=1;startSize=26;horizontalStack=0;resizeParent=1;resizeLast=0;collapsible=1;marginBottom=0;rounded=0;shadow=0;strokeWidth=1;" parent="1" vertex="1">
          <mxGeometry x="2030" y="120" width="190" height="570" as="geometry">
            <mxRectangle x="130" y="380" width="160" height="26" as="alternateBounds" />
          </mxGeometry>
        </mxCell>
        <mxCell id="5_ABCGyV5lzwghwUcbMz-2" value="- Patient ID&#xa;" style="text;align=left;verticalAlign=top;spacingLeft=4;spacingRight=4;overflow=hidden;rotatable=0;points=[[0,0.5],[1,0.5]];portConstraint=eastwest;" parent="5_ABCGyV5lzwghwUcbMz-1" vertex="1">
          <mxGeometry y="26" width="190" height="26" as="geometry" />
        </mxCell>
        <mxCell id="5_ABCGyV5lzwghwUcbMz-3" value="- name" style="text;align=left;verticalAlign=top;spacingLeft=4;spacingRight=4;overflow=hidden;rotatable=0;points=[[0,0.5],[1,0.5]];portConstraint=eastwest;rounded=0;shadow=0;html=0;" parent="5_ABCGyV5lzwghwUcbMz-1" vertex="1">
          <mxGeometry y="52" width="190" height="26" as="geometry" />
        </mxCell>
        <mxCell id="5_ABCGyV5lzwghwUcbMz-4" value="- DOB" style="text;align=left;verticalAlign=top;spacingLeft=4;spacingRight=4;overflow=hidden;rotatable=0;points=[[0,0.5],[1,0.5]];portConstraint=eastwest;" parent="5_ABCGyV5lzwghwUcbMz-1" vertex="1">
          <mxGeometry y="78" width="190" height="26" as="geometry" />
        </mxCell>
        <mxCell id="5_ABCGyV5lzwghwUcbMz-5" value="- address" style="text;align=left;verticalAlign=top;spacingLeft=4;spacingRight=4;overflow=hidden;rotatable=0;points=[[0,0.5],[1,0.5]];portConstraint=eastwest;rounded=0;shadow=0;html=0;" parent="5_ABCGyV5lzwghwUcbMz-1" vertex="1">
          <mxGeometry y="104" width="190" height="26" as="geometry" />
        </mxCell>
        <mxCell id="5_ABCGyV5lzwghwUcbMz-6" value="- gender" style="text;align=left;verticalAlign=top;spacingLeft=4;spacingRight=4;overflow=hidden;rotatable=0;points=[[0,0.5],[1,0.5]];portConstraint=eastwest;rounded=0;shadow=0;html=0;" parent="5_ABCGyV5lzwghwUcbMz-1" vertex="1">
          <mxGeometry y="130" width="190" height="26" as="geometry" />
        </mxCell>
        <mxCell id="5_ABCGyV5lzwghwUcbMz-7" value="- phone" style="text;align=left;verticalAlign=top;spacingLeft=4;spacingRight=4;overflow=hidden;rotatable=0;points=[[0,0.5],[1,0.5]];portConstraint=eastwest;rounded=0;shadow=0;html=0;" parent="5_ABCGyV5lzwghwUcbMz-1" vertex="1">
          <mxGeometry y="156" width="190" height="26" as="geometry" />
        </mxCell>
        <mxCell id="5_ABCGyV5lzwghwUcbMz-8" value="- NID&#xa;" style="text;align=left;verticalAlign=top;spacingLeft=4;spacingRight=4;overflow=hidden;rotatable=0;points=[[0,0.5],[1,0.5]];portConstraint=eastwest;rounded=0;shadow=0;html=0;" parent="5_ABCGyV5lzwghwUcbMz-1" vertex="1">
          <mxGeometry y="182" width="190" height="32" as="geometry" />
        </mxCell>
        <mxCell id="5_ABCGyV5lzwghwUcbMz-9" value="- height&#xa;" style="text;align=left;verticalAlign=top;spacingLeft=4;spacingRight=4;overflow=hidden;rotatable=0;points=[[0,0.5],[1,0.5]];portConstraint=eastwest;rounded=0;shadow=0;html=0;" parent="5_ABCGyV5lzwghwUcbMz-1" vertex="1">
          <mxGeometry y="214" width="190" height="32" as="geometry" />
        </mxCell>
        <mxCell id="5_ABCGyV5lzwghwUcbMz-11" value="" style="endArrow=none;html=1;rounded=0;entryX=1.019;entryY=0.884;entryDx=0;entryDy=0;entryPerimeter=0;" parent="5_ABCGyV5lzwghwUcbMz-1" target="5_ABCGyV5lzwghwUcbMz-10" edge="1">
          <mxGeometry width="50" height="50" relative="1" as="geometry">
            <mxPoint y="320" as="sourcePoint" />
            <mxPoint x="50" y="270" as="targetPoint" />
            <Array as="points">
              <mxPoint x="100" y="320" />
            </Array>
          </mxGeometry>
        </mxCell>
        <mxCell id="5_ABCGyV5lzwghwUcbMz-10" value="- weight&#xa;&#xa;- occupations[]&#xa;&#xa;- blood group" style="text;align=left;verticalAlign=top;spacingLeft=4;spacingRight=4;overflow=hidden;rotatable=0;points=[[0,0.5],[1,0.5]];portConstraint=eastwest;rounded=0;shadow=0;html=0;" parent="5_ABCGyV5lzwghwUcbMz-1" vertex="1">
          <mxGeometry y="246" width="190" height="84" as="geometry" />
        </mxCell>
        <mxCell id="5_ABCGyV5lzwghwUcbMz-12" value="+ getMyDetails(patient ID)" style="text;align=left;verticalAlign=top;spacingLeft=4;spacingRight=4;overflow=hidden;rotatable=0;points=[[0,0.5],[1,0.5]];portConstraint=eastwest;rounded=0;shadow=0;html=0;" parent="5_ABCGyV5lzwghwUcbMz-1" vertex="1">
          <mxGeometry y="330" width="190" height="30" as="geometry" />
        </mxCell>
        <mxCell id="5_ABCGyV5lzwghwUcbMz-13" value="+ updateMyDetails(name)" style="text;align=left;verticalAlign=top;spacingLeft=4;spacingRight=4;overflow=hidden;rotatable=0;points=[[0,0.5],[1,0.5]];portConstraint=eastwest;rounded=0;shadow=0;html=0;" parent="5_ABCGyV5lzwghwUcbMz-1" vertex="1">
          <mxGeometry y="360" width="190" height="32" as="geometry" />
        </mxCell>
        <mxCell id="5_ABCGyV5lzwghwUcbMz-14" value="+ updateMyDetails(DOB)" style="text;align=left;verticalAlign=top;spacingLeft=4;spacingRight=4;overflow=hidden;rotatable=0;points=[[0,0.5],[1,0.5]];portConstraint=eastwest;rounded=0;shadow=0;html=0;" parent="5_ABCGyV5lzwghwUcbMz-1" vertex="1">
          <mxGeometry y="392" width="190" height="28" as="geometry" />
        </mxCell>
        <mxCell id="5_ABCGyV5lzwghwUcbMz-15" value="+ updateMyDetails(address)" style="text;align=left;verticalAlign=top;spacingLeft=4;spacingRight=4;overflow=hidden;rotatable=0;points=[[0,0.5],[1,0.5]];portConstraint=eastwest;rounded=0;shadow=0;html=0;" parent="5_ABCGyV5lzwghwUcbMz-1" vertex="1">
          <mxGeometry y="420" width="190" height="30" as="geometry" />
        </mxCell>
        <mxCell id="ra100qvxLEZKVICZM59s-1" value="+ updateMyDetails (phone)" style="text;align=left;verticalAlign=top;spacingLeft=4;spacingRight=4;overflow=hidden;rotatable=0;points=[[0,0.5],[1,0.5]];portConstraint=eastwest;rounded=0;shadow=0;html=0;" parent="5_ABCGyV5lzwghwUcbMz-1" vertex="1">
          <mxGeometry y="450" width="190" height="30" as="geometry" />
        </mxCell>
        <mxCell id="ra100qvxLEZKVICZM59s-2" value="+ updateMyDetails(height)" style="text;align=left;verticalAlign=top;spacingLeft=4;spacingRight=4;overflow=hidden;rotatable=0;points=[[0,0.5],[1,0.5]];portConstraint=eastwest;rounded=0;shadow=0;html=0;" parent="5_ABCGyV5lzwghwUcbMz-1" vertex="1">
          <mxGeometry y="480" width="190" height="30" as="geometry" />
        </mxCell>
        <mxCell id="ra100qvxLEZKVICZM59s-3" value="+ updateMyDetails(weight)" style="text;align=left;verticalAlign=top;spacingLeft=4;spacingRight=4;overflow=hidden;rotatable=0;points=[[0,0.5],[1,0.5]];portConstraint=eastwest;rounded=0;shadow=0;html=0;" parent="5_ABCGyV5lzwghwUcbMz-1" vertex="1">
          <mxGeometry y="510" width="190" height="30" as="geometry" />
        </mxCell>
        <mxCell id="ra100qvxLEZKVICZM59s-4" value="+ updateMyDetails(occupation)" style="text;align=left;verticalAlign=top;spacingLeft=4;spacingRight=4;overflow=hidden;rotatable=0;points=[[0,0.5],[1,0.5]];portConstraint=eastwest;rounded=0;shadow=0;html=0;" parent="5_ABCGyV5lzwghwUcbMz-1" vertex="1">
          <mxGeometry y="540" width="190" height="30" as="geometry" />
        </mxCell>
        <mxCell id="YaBfQUy6F2_DCtUlFwVS-2" style="edgeStyle=orthogonalEdgeStyle;rounded=0;orthogonalLoop=1;jettySize=auto;html=1;" parent="1" source="5_ABCGyV5lzwghwUcbMz-18" edge="1">
          <mxGeometry relative="1" as="geometry">
            <mxPoint x="1480" y="300" as="targetPoint" />
          </mxGeometry>
        </mxCell>
        <mxCell id="5_ABCGyV5lzwghwUcbMz-18" value="" style="rounded=0;whiteSpace=wrap;html=1;" parent="1" vertex="1">
          <mxGeometry x="920" y="140" width="270" height="340" as="geometry" />
        </mxCell>
        <mxCell id="5_ABCGyV5lzwghwUcbMz-19" value="" style="endArrow=none;html=1;rounded=0;" parent="1" edge="1">
          <mxGeometry width="50" height="50" relative="1" as="geometry">
            <mxPoint x="920" y="190" as="sourcePoint" />
            <mxPoint x="1190" y="190" as="targetPoint" />
          </mxGeometry>
        </mxCell>
        <mxCell id="5_ABCGyV5lzwghwUcbMz-21" value="&amp;lt;&amp;lt;view&amp;gt;&amp;gt;&lt;br&gt;Patient Dashboard UI" style="text;html=1;strokeColor=none;fillColor=none;align=center;verticalAlign=middle;whiteSpace=wrap;rounded=0;" parent="1" vertex="1">
          <mxGeometry x="920" y="150" width="270" height="30" as="geometry" />
        </mxCell>
        <mxCell id="5_ABCGyV5lzwghwUcbMz-22" value="" style="endArrow=none;html=1;rounded=0;" parent="1" edge="1">
          <mxGeometry width="50" height="50" relative="1" as="geometry">
            <mxPoint x="920" y="210" as="sourcePoint" />
            <mxPoint x="1190" y="210" as="targetPoint" />
          </mxGeometry>
        </mxCell>
        <mxCell id="5_ABCGyV5lzwghwUcbMz-23" value="+ viewMyInfo()" style="text;html=1;strokeColor=none;fillColor=none;align=left;verticalAlign=middle;whiteSpace=wrap;rounded=0;" parent="1" vertex="1">
          <mxGeometry x="920" y="220" width="270" height="30" as="geometry" />
        </mxCell>
        <mxCell id="5_ABCGyV5lzwghwUcbMz-24" value="+ editMyInfo()" style="text;html=1;strokeColor=none;fillColor=none;align=left;verticalAlign=middle;whiteSpace=wrap;rounded=0;" parent="1" vertex="1">
          <mxGeometry x="920" y="250" width="270" height="30" as="geometry" />
        </mxCell>
        <mxCell id="5_ABCGyV5lzwghwUcbMz-25" value="+ viewMyIPreviousAppointment()" style="text;html=1;strokeColor=none;fillColor=none;align=left;verticalAlign=middle;whiteSpace=wrap;rounded=0;" parent="1" vertex="1">
          <mxGeometry x="920" y="280" width="270" height="30" as="geometry" />
        </mxCell>
        <mxCell id="5_ABCGyV5lzwghwUcbMz-26" value="+ viewMyUpcomingAppointment()" style="text;html=1;strokeColor=none;fillColor=none;align=left;verticalAlign=middle;whiteSpace=wrap;rounded=0;" parent="1" vertex="1">
          <mxGeometry x="920" y="310" width="270" height="30" as="geometry" />
        </mxCell>
        <mxCell id="5_ABCGyV5lzwghwUcbMz-27" value="+ viewMyAllAppointment()" style="text;html=1;strokeColor=none;fillColor=none;align=left;verticalAlign=middle;whiteSpace=wrap;rounded=0;" parent="1" vertex="1">
          <mxGeometry x="920" y="340" width="270" height="30" as="geometry" />
        </mxCell>
        <mxCell id="5_ABCGyV5lzwghwUcbMz-29" value="" style="rounded=0;whiteSpace=wrap;html=1;" parent="1" vertex="1">
          <mxGeometry x="1490" y="140" width="260" height="340" as="geometry" />
        </mxCell>
        <mxCell id="5_ABCGyV5lzwghwUcbMz-30" value="" style="endArrow=none;html=1;rounded=0;" parent="1" edge="1">
          <mxGeometry width="50" height="50" relative="1" as="geometry">
            <mxPoint x="1490" y="190" as="sourcePoint" />
            <mxPoint x="1750" y="190" as="targetPoint" />
          </mxGeometry>
        </mxCell>
        <mxCell id="5_ABCGyV5lzwghwUcbMz-31" value="" style="endArrow=none;html=1;rounded=0;" parent="1" edge="1">
          <mxGeometry width="50" height="50" relative="1" as="geometry">
            <mxPoint x="1490" y="210" as="sourcePoint" />
            <mxPoint x="1750" y="210" as="targetPoint" />
          </mxGeometry>
        </mxCell>
        <mxCell id="5_ABCGyV5lzwghwUcbMz-33" value="&amp;lt;&amp;lt;control&amp;gt;&amp;gt;&lt;br&gt;Patient Dashboard Controller" style="text;html=1;strokeColor=none;fillColor=none;align=center;verticalAlign=middle;whiteSpace=wrap;rounded=0;" parent="1" vertex="1">
          <mxGeometry x="1490" y="150" width="260" height="30" as="geometry" />
        </mxCell>
        <mxCell id="5_ABCGyV5lzwghwUcbMz-34" value="+ retrieveMyInfo(patientID)" style="text;html=1;strokeColor=none;fillColor=none;align=left;verticalAlign=middle;whiteSpace=wrap;rounded=0;" parent="1" vertex="1">
          <mxGeometry x="1490" y="220" width="260" height="30" as="geometry" />
        </mxCell>
        <mxCell id="5_ABCGyV5lzwghwUcbMz-35" value="+ updateMyInfo(patientID)" style="text;html=1;strokeColor=none;fillColor=none;align=left;verticalAlign=middle;whiteSpace=wrap;rounded=0;" parent="1" vertex="1">
          <mxGeometry x="1490" y="250" width="260" height="30" as="geometry" />
        </mxCell>
        <mxCell id="5_ABCGyV5lzwghwUcbMz-36" value="+ cancelAppointment()" style="text;html=1;strokeColor=none;fillColor=none;align=left;verticalAlign=middle;whiteSpace=wrap;rounded=0;" parent="1" vertex="1">
          <mxGeometry x="920" y="370" width="260" height="30" as="geometry" />
        </mxCell>
        <mxCell id="5_ABCGyV5lzwghwUcbMz-37" value="+ retrieveMyPreviousAppointments(patientID)" style="text;html=1;strokeColor=none;fillColor=none;align=left;verticalAlign=middle;whiteSpace=wrap;rounded=0;" parent="1" vertex="1">
          <mxGeometry x="1490" y="280" width="260" height="30" as="geometry" />
        </mxCell>
        <mxCell id="5_ABCGyV5lzwghwUcbMz-38" value="+ retrieveMyUpcomingAppointments(patientID)" style="text;html=1;strokeColor=none;fillColor=none;align=left;verticalAlign=middle;whiteSpace=wrap;rounded=0;" parent="1" vertex="1">
          <mxGeometry x="1490" y="310" width="260" height="30" as="geometry" />
        </mxCell>
        <mxCell id="5_ABCGyV5lzwghwUcbMz-39" value="+ retrieveMyAllAppointments(patientID)" style="text;html=1;strokeColor=none;fillColor=none;align=left;verticalAlign=middle;whiteSpace=wrap;rounded=0;" parent="1" vertex="1">
          <mxGeometry x="1490" y="340" width="260" height="30" as="geometry" />
        </mxCell>
        <mxCell id="5_ABCGyV5lzwghwUcbMz-40" value="+ cancelAppointment(appointmentID)" style="text;html=1;strokeColor=none;fillColor=none;align=left;verticalAlign=middle;whiteSpace=wrap;rounded=0;" parent="1" vertex="1">
          <mxGeometry x="1490" y="370" width="260" height="30" as="geometry" />
        </mxCell>
        <mxCell id="YaBfQUy6F2_DCtUlFwVS-4" style="edgeStyle=orthogonalEdgeStyle;rounded=0;orthogonalLoop=1;jettySize=auto;html=1;entryX=0.5;entryY=1;entryDx=0;entryDy=0;" parent="1" source="XYprzVuoxymijx9S4gMQ-1" target="5_ABCGyV5lzwghwUcbMz-29" edge="1">
          <mxGeometry relative="1" as="geometry" />
        </mxCell>
        <mxCell id="XYprzVuoxymijx9S4gMQ-1" value="" style="rounded=0;whiteSpace=wrap;html=1;" parent="1" vertex="1">
          <mxGeometry x="1732.5" y="690" width="265" height="300" as="geometry" />
        </mxCell>
        <mxCell id="XYprzVuoxymijx9S4gMQ-2" value="&amp;lt;&amp;lt;model&amp;gt;&amp;gt;&lt;br&gt;Appointment" style="text;html=1;strokeColor=none;fillColor=none;align=center;verticalAlign=middle;whiteSpace=wrap;rounded=0;" parent="1" vertex="1">
          <mxGeometry x="1835" y="690" width="60" height="30" as="geometry" />
        </mxCell>
        <mxCell id="XYprzVuoxymijx9S4gMQ-3" value="" style="endArrow=none;html=1;rounded=0;" parent="1" edge="1">
          <mxGeometry width="50" height="50" relative="1" as="geometry">
            <mxPoint x="1730" y="720" as="sourcePoint" />
            <mxPoint x="2000" y="720" as="targetPoint" />
          </mxGeometry>
        </mxCell>
        <mxCell id="XYprzVuoxymijx9S4gMQ-4" value="" style="endArrow=none;html=1;rounded=0;" parent="1" edge="1">
          <mxGeometry width="50" height="50" relative="1" as="geometry">
            <mxPoint x="1732.5" y="860" as="sourcePoint" />
            <mxPoint x="1997.5" y="860" as="targetPoint" />
          </mxGeometry>
        </mxCell>
        <mxCell id="XYprzVuoxymijx9S4gMQ-5" value="- appointmentID" style="text;html=1;strokeColor=none;fillColor=none;align=left;verticalAlign=middle;whiteSpace=wrap;rounded=0;" parent="1" vertex="1">
          <mxGeometry x="1732.5" y="730" width="210" height="20" as="geometry" />
        </mxCell>
        <mxCell id="XYprzVuoxymijx9S4gMQ-6" value="- patientID" style="text;html=1;strokeColor=none;fillColor=none;align=left;verticalAlign=middle;whiteSpace=wrap;rounded=0;" parent="1" vertex="1">
          <mxGeometry x="1732.5" y="750" width="210" height="20" as="geometry" />
        </mxCell>
        <mxCell id="XYprzVuoxymijx9S4gMQ-7" value="- doctorID" style="text;html=1;strokeColor=none;fillColor=none;align=left;verticalAlign=middle;whiteSpace=wrap;rounded=0;" parent="1" vertex="1">
          <mxGeometry x="1732.5" y="770" width="210" height="20" as="geometry" />
        </mxCell>
        <mxCell id="XYprzVuoxymijx9S4gMQ-8" value="- timeSlot" style="text;html=1;strokeColor=none;fillColor=none;align=left;verticalAlign=middle;whiteSpace=wrap;rounded=0;" parent="1" vertex="1">
          <mxGeometry x="1732.5" y="790" width="210" height="20" as="geometry" />
        </mxCell>
        <mxCell id="XYprzVuoxymijx9S4gMQ-9" value="- location" style="text;html=1;strokeColor=none;fillColor=none;align=left;verticalAlign=middle;whiteSpace=wrap;rounded=0;" parent="1" vertex="1">
          <mxGeometry x="1732.5" y="810" width="210" height="20" as="geometry" />
        </mxCell>
        <mxCell id="XYprzVuoxymijx9S4gMQ-10" value="- status" style="text;html=1;strokeColor=none;fillColor=none;align=left;verticalAlign=middle;whiteSpace=wrap;rounded=0;" parent="1" vertex="1">
          <mxGeometry x="1732.5" y="830" width="210" height="20" as="geometry" />
        </mxCell>
        <mxCell id="XYprzVuoxymijx9S4gMQ-11" value="+ getAppointment()" style="text;html=1;strokeColor=none;fillColor=none;align=left;verticalAlign=middle;whiteSpace=wrap;rounded=0;" parent="1" vertex="1">
          <mxGeometry x="1732.5" y="870" width="210" height="20" as="geometry" />
        </mxCell>
        <mxCell id="ra100qvxLEZKVICZM59s-6" value="+ geUpcomingAppointments(patient ID)" style="text;html=1;strokeColor=none;fillColor=none;align=left;verticalAlign=middle;whiteSpace=wrap;rounded=0;" parent="1" vertex="1">
          <mxGeometry x="1732.5" y="890" width="265" height="20" as="geometry" />
        </mxCell>
        <mxCell id="ra100qvxLEZKVICZM59s-7" value="+ getAllAppointments(patient ID)" style="text;html=1;strokeColor=none;fillColor=none;align=left;verticalAlign=middle;whiteSpace=wrap;rounded=0;" parent="1" vertex="1">
          <mxGeometry x="1732.5" y="910" width="265" height="20" as="geometry" />
        </mxCell>
        <mxCell id="ra100qvxLEZKVICZM59s-8" value="+ getPreviousAppointments(patient ID)" style="text;html=1;strokeColor=none;fillColor=none;align=left;verticalAlign=middle;whiteSpace=wrap;rounded=0;" parent="1" vertex="1">
          <mxGeometry x="1732.5" y="930" width="265" height="20" as="geometry" />
        </mxCell>
        <mxCell id="ra100qvxLEZKVICZM59s-9" value="+ cancelAppointment(appointmentID)" style="text;html=1;strokeColor=none;fillColor=none;align=left;verticalAlign=middle;whiteSpace=wrap;rounded=0;" parent="1" vertex="1">
          <mxGeometry x="1732.5" y="950" width="265" height="20" as="geometry" />
        </mxCell>
        <mxCell id="YaBfQUy6F2_DCtUlFwVS-1" value="+ viewMyNotification()" style="text;html=1;strokeColor=none;fillColor=none;align=left;verticalAlign=middle;whiteSpace=wrap;rounded=0;" parent="1" vertex="1">
          <mxGeometry x="925" y="400" width="260" height="30" as="geometry" />
        </mxCell>
        <mxCell id="zKbxAUP2bvpHDMiqJ94Y-8" style="edgeStyle=orthogonalEdgeStyle;rounded=0;orthogonalLoop=1;jettySize=auto;html=1;entryX=0.455;entryY=1.013;entryDx=0;entryDy=0;entryPerimeter=0;" parent="1" source="YaBfQUy6F2_DCtUlFwVS-5" target="XYprzVuoxymijx9S4gMQ-1" edge="1">
          <mxGeometry relative="1" as="geometry">
            <Array as="points">
              <mxPoint x="1853" y="1210" />
            </Array>
          </mxGeometry>
        </mxCell>
        <mxCell id="zKbxAUP2bvpHDMiqJ94Y-9" style="edgeStyle=orthogonalEdgeStyle;rounded=0;orthogonalLoop=1;jettySize=auto;html=1;entryX=0.292;entryY=1.003;entryDx=0;entryDy=0;entryPerimeter=0;" parent="1" source="YaBfQUy6F2_DCtUlFwVS-5" target="5_ABCGyV5lzwghwUcbMz-29" edge="1">
          <mxGeometry relative="1" as="geometry" />
        </mxCell>
        <mxCell id="YaBfQUy6F2_DCtUlFwVS-5" value="" style="rounded=0;whiteSpace=wrap;html=1;" parent="1" vertex="1">
          <mxGeometry x="1470" y="1100" width="340" height="220" as="geometry" />
        </mxCell>
        <mxCell id="YaBfQUy6F2_DCtUlFwVS-6" value="" style="endArrow=none;html=1;rounded=0;" parent="1" edge="1">
          <mxGeometry width="50" height="50" relative="1" as="geometry">
            <mxPoint x="1470" y="1149.5" as="sourcePoint" />
            <mxPoint x="1810" y="1149.5" as="targetPoint" />
          </mxGeometry>
        </mxCell>
        <mxCell id="YaBfQUy6F2_DCtUlFwVS-9" value="&amp;lt;&amp;lt;model&amp;gt;&amp;gt;&lt;br&gt;Notification" style="text;html=1;strokeColor=none;fillColor=none;align=center;verticalAlign=middle;whiteSpace=wrap;rounded=0;" parent="1" vertex="1">
          <mxGeometry x="1610" y="1110" width="60" height="30" as="geometry" />
        </mxCell>
        <mxCell id="YaBfQUy6F2_DCtUlFwVS-10" value="" style="endArrow=none;html=1;rounded=0;" parent="1" edge="1">
          <mxGeometry width="50" height="50" relative="1" as="geometry">
            <mxPoint x="1470" y="1260" as="sourcePoint" />
            <mxPoint x="1810" y="1260" as="targetPoint" />
          </mxGeometry>
        </mxCell>
        <mxCell id="YaBfQUy6F2_DCtUlFwVS-11" value="+ retrieveNotification(patient ID)" style="text;html=1;strokeColor=none;fillColor=none;align=left;verticalAlign=middle;whiteSpace=wrap;rounded=0;" parent="1" vertex="1">
          <mxGeometry x="1487.5" y="400" width="260" height="30" as="geometry" />
        </mxCell>
        <mxCell id="zKbxAUP2bvpHDMiqJ94Y-7" style="edgeStyle=orthogonalEdgeStyle;rounded=0;orthogonalLoop=1;jettySize=auto;html=1;entryX=0.726;entryY=1.01;entryDx=0;entryDy=0;entryPerimeter=0;" parent="1" source="y6qT5v7wBq1nvoVLaaBB-1" target="XYprzVuoxymijx9S4gMQ-1" edge="1">
          <mxGeometry relative="1" as="geometry" />
        </mxCell>
        <mxCell id="y6qT5v7wBq1nvoVLaaBB-1" value="" style="rounded=0;whiteSpace=wrap;html=1;" parent="1" vertex="1">
          <mxGeometry x="2000" y="1100" width="292.5" height="260" as="geometry" />
        </mxCell>
        <mxCell id="y6qT5v7wBq1nvoVLaaBB-2" value="" style="endArrow=none;html=1;rounded=0;" parent="1" edge="1">
          <mxGeometry width="50" height="50" relative="1" as="geometry">
            <mxPoint x="2000" y="1140" as="sourcePoint" />
            <mxPoint x="2295" y="1140" as="targetPoint" />
          </mxGeometry>
        </mxCell>
        <mxCell id="y6qT5v7wBq1nvoVLaaBB-3" value="&amp;lt;&amp;lt;model&amp;gt;&amp;gt;&lt;br&gt;Time Slots" style="text;html=1;strokeColor=none;fillColor=none;align=center;verticalAlign=middle;whiteSpace=wrap;rounded=0;" parent="1" vertex="1">
          <mxGeometry x="2108.13" y="1100" width="60" height="30" as="geometry" />
        </mxCell>
        <mxCell id="y6qT5v7wBq1nvoVLaaBB-4" value="- doctorID" style="text;html=1;strokeColor=none;fillColor=none;align=left;verticalAlign=middle;whiteSpace=wrap;rounded=0;" parent="1" vertex="1">
          <mxGeometry x="1997.5" y="1150" width="195" height="20" as="geometry" />
        </mxCell>
        <mxCell id="y6qT5v7wBq1nvoVLaaBB-5" value="- availableTime[]" style="text;html=1;strokeColor=none;fillColor=none;align=left;verticalAlign=middle;whiteSpace=wrap;rounded=0;" parent="1" vertex="1">
          <mxGeometry x="1997.5" y="1170" width="195" height="20" as="geometry" />
        </mxCell>
        <mxCell id="y6qT5v7wBq1nvoVLaaBB-6" value="" style="endArrow=none;html=1;rounded=0;" parent="1" edge="1">
          <mxGeometry width="50" height="50" relative="1" as="geometry">
            <mxPoint x="2000" y="1240" as="sourcePoint" />
            <mxPoint x="2295" y="1240" as="targetPoint" />
          </mxGeometry>
        </mxCell>
        <mxCell id="y6qT5v7wBq1nvoVLaaBB-7" value="+ getTimeSlots(doctorID)" style="text;html=1;strokeColor=none;fillColor=none;align=left;verticalAlign=middle;whiteSpace=wrap;rounded=0;" parent="1" vertex="1">
          <mxGeometry x="1997.5" y="1260" width="195" height="20" as="geometry" />
        </mxCell>
        <mxCell id="y6qT5v7wBq1nvoVLaaBB-8" value="+ addAppointment(doctor ID, time slot)" style="text;html=1;strokeColor=none;fillColor=none;align=left;verticalAlign=middle;whiteSpace=wrap;rounded=0;" parent="1" vertex="1">
          <mxGeometry x="2000" y="1290" width="272.5" height="20" as="geometry" />
        </mxCell>
        <mxCell id="y6qT5v7wBq1nvoVLaaBB-9" value="- bookedTime[]" style="text;html=1;strokeColor=none;fillColor=none;align=left;verticalAlign=middle;whiteSpace=wrap;rounded=0;" parent="1" vertex="1">
          <mxGeometry x="2000" y="1200" width="195" height="20" as="geometry" />
        </mxCell>
        <mxCell id="y6qT5v7wBq1nvoVLaaBB-10" value="+ updateAvailableTime(Doctor ID, time slot)" style="text;html=1;strokeColor=none;fillColor=none;align=left;verticalAlign=middle;whiteSpace=wrap;rounded=0;" parent="1" vertex="1">
          <mxGeometry x="2003.75" y="1330" width="268.75" height="20" as="geometry" />
        </mxCell>
        <mxCell id="zKbxAUP2bvpHDMiqJ94Y-1" value="- Identification" style="text;html=1;strokeColor=none;fillColor=none;align=left;verticalAlign=middle;whiteSpace=wrap;rounded=0;" parent="1" vertex="1">
          <mxGeometry x="1470" y="1160" width="290" height="20" as="geometry" />
        </mxCell>
        <mxCell id="zKbxAUP2bvpHDMiqJ94Y-2" value="- ID" style="text;html=1;strokeColor=none;fillColor=none;align=left;verticalAlign=middle;whiteSpace=wrap;rounded=0;" parent="1" vertex="1">
          <mxGeometry x="1470" y="1180" width="290" height="20" as="geometry" />
        </mxCell>
        <mxCell id="zKbxAUP2bvpHDMiqJ94Y-3" value="- Notification ID" style="text;html=1;strokeColor=none;fillColor=none;align=left;verticalAlign=middle;whiteSpace=wrap;rounded=0;" parent="1" vertex="1">
          <mxGeometry x="1470" y="1200" width="290" height="20" as="geometry" />
        </mxCell>
        <mxCell id="zKbxAUP2bvpHDMiqJ94Y-4" value="- Message" style="text;html=1;strokeColor=none;fillColor=none;align=left;verticalAlign=middle;whiteSpace=wrap;rounded=0;" parent="1" vertex="1">
          <mxGeometry x="1470" y="1230" width="290" height="20" as="geometry" />
        </mxCell>
        <mxCell id="zKbxAUP2bvpHDMiqJ94Y-5" value="+ createNotification(appointment ID, ID, identification, time)" style="text;html=1;strokeColor=none;fillColor=none;align=left;verticalAlign=middle;whiteSpace=wrap;rounded=0;" parent="1" vertex="1">
          <mxGeometry x="1470" y="1280" width="330" height="20" as="geometry" />
        </mxCell>
        <mxCell id="H1Ef7pD5qe1gr14jkdKx-1" value="+ provideReview()" style="text;html=1;strokeColor=none;fillColor=none;align=left;verticalAlign=middle;whiteSpace=wrap;rounded=0;" vertex="1" parent="1">
          <mxGeometry x="925" y="440" width="260" height="30" as="geometry" />
        </mxCell>
        <mxCell id="H1Ef7pD5qe1gr14jkdKx-2" value="+ addReview(doctor ID)" style="text;html=1;strokeColor=none;fillColor=none;align=left;verticalAlign=middle;whiteSpace=wrap;rounded=0;" vertex="1" parent="1">
          <mxGeometry x="1490" y="430" width="260" height="30" as="geometry" />
        </mxCell>
        <mxCell id="MC2k3_koO0-TGuM2_95_-14" style="edgeStyle=orthogonalEdgeStyle;rounded=0;orthogonalLoop=1;jettySize=auto;html=1;entryX=0.065;entryY=1.005;entryDx=0;entryDy=0;entryPerimeter=0;" edge="1" parent="1" source="MC2k3_koO0-TGuM2_95_-1" target="5_ABCGyV5lzwghwUcbMz-29">
          <mxGeometry relative="1" as="geometry" />
        </mxCell>
        <mxCell id="MC2k3_koO0-TGuM2_95_-1" value="`" style="rounded=0;whiteSpace=wrap;html=1;" vertex="1" parent="1">
          <mxGeometry x="1210" y="755" width="190" height="340" as="geometry" />
        </mxCell>
        <mxCell id="MC2k3_koO0-TGuM2_95_-2" value="&lt;div&gt;&amp;lt;&amp;lt;model&amp;gt;&amp;gt;&lt;/div&gt;&lt;div&gt;Review&lt;br&gt;&lt;/div&gt;" style="text;html=1;strokeColor=none;fillColor=none;align=center;verticalAlign=middle;whiteSpace=wrap;rounded=0;" vertex="1" parent="1">
          <mxGeometry x="1250" y="745" width="100" height="60" as="geometry" />
        </mxCell>
        <mxCell id="MC2k3_koO0-TGuM2_95_-3" value="&lt;div&gt;+UpdateReview(Did,rating)&lt;/div&gt;&lt;div&gt;&lt;br&gt;&lt;/div&gt;" style="text;html=1;strokeColor=none;fillColor=none;align=left;verticalAlign=middle;whiteSpace=wrap;rounded=0;" vertex="1" parent="1">
          <mxGeometry x="1210" y="945" width="190" height="30" as="geometry" />
        </mxCell>
        <mxCell id="MC2k3_koO0-TGuM2_95_-4" value="-reviewID" style="text;html=1;strokeColor=none;fillColor=none;align=left;verticalAlign=middle;whiteSpace=wrap;rounded=0;" vertex="1" parent="1">
          <mxGeometry x="1210" y="795" width="190" height="30" as="geometry" />
        </mxCell>
        <mxCell id="MC2k3_koO0-TGuM2_95_-5" value="" style="endArrow=none;html=1;rounded=0;" edge="1" parent="1">
          <mxGeometry width="50" height="50" relative="1" as="geometry">
            <mxPoint x="1210" y="795" as="sourcePoint" />
            <mxPoint x="1400" y="795" as="targetPoint" />
            <Array as="points">
              <mxPoint x="1250" y="795" />
            </Array>
          </mxGeometry>
        </mxCell>
        <mxCell id="MC2k3_koO0-TGuM2_95_-6" value="-patientID" style="text;html=1;strokeColor=none;fillColor=none;align=left;verticalAlign=middle;whiteSpace=wrap;rounded=0;" vertex="1" parent="1">
          <mxGeometry x="1210" y="825" width="190" height="30" as="geometry" />
        </mxCell>
        <mxCell id="MC2k3_koO0-TGuM2_95_-7" value="- doctorID" style="text;html=1;strokeColor=none;fillColor=none;align=left;verticalAlign=middle;whiteSpace=wrap;rounded=0;" vertex="1" parent="1">
          <mxGeometry x="1210" y="855" width="190" height="30" as="geometry" />
        </mxCell>
        <mxCell id="MC2k3_koO0-TGuM2_95_-8" value="-rating" style="text;html=1;strokeColor=none;fillColor=none;align=left;verticalAlign=middle;whiteSpace=wrap;rounded=0;" vertex="1" parent="1">
          <mxGeometry x="1210" y="885" width="190" height="30" as="geometry" />
        </mxCell>
        <mxCell id="MC2k3_koO0-TGuM2_95_-9" value="- comment" style="text;html=1;strokeColor=none;fillColor=none;align=left;verticalAlign=middle;whiteSpace=wrap;rounded=0;" vertex="1" parent="1">
          <mxGeometry x="1210" y="915" width="190" height="30" as="geometry" />
        </mxCell>
        <mxCell id="MC2k3_koO0-TGuM2_95_-10" value="" style="endArrow=none;html=1;rounded=0;" edge="1" parent="1">
          <mxGeometry width="50" height="50" relative="1" as="geometry">
            <mxPoint x="1210" y="944" as="sourcePoint" />
            <mxPoint x="1400" y="944" as="targetPoint" />
          </mxGeometry>
        </mxCell>
        <mxCell id="MC2k3_koO0-TGuM2_95_-11" value="&lt;div&gt;+ getReview(doctor ID)&lt;/div&gt;" style="text;html=1;strokeColor=none;fillColor=none;align=left;verticalAlign=middle;whiteSpace=wrap;rounded=0;" vertex="1" parent="1">
          <mxGeometry x="1210" y="975" width="190" height="30" as="geometry" />
        </mxCell>
        <mxCell id="MC2k3_koO0-TGuM2_95_-12" value="&lt;div&gt;+ addNewComment(doctor ID)&lt;/div&gt;" style="text;html=1;strokeColor=none;fillColor=none;align=left;verticalAlign=middle;whiteSpace=wrap;rounded=0;" vertex="1" parent="1">
          <mxGeometry x="1210" y="1015" width="190" height="30" as="geometry" />
        </mxCell>
        <mxCell id="MC2k3_koO0-TGuM2_95_-13" value="&lt;div&gt;+ getComment(doctor ID)&lt;/div&gt;" style="text;html=1;strokeColor=none;fillColor=none;align=left;verticalAlign=middle;whiteSpace=wrap;rounded=0;" vertex="1" parent="1">
          <mxGeometry x="1210" y="1055" width="190" height="30" as="geometry" />
        </mxCell>
      </root>
    </mxGraphModel>
  </diagram>
  <diagram id="pEEr7ys63SjqSgw8xGO3" name="Telemedicine-patient">
    <mxGraphModel dx="1434" dy="765" grid="1" gridSize="10" guides="1" tooltips="1" connect="1" arrows="1" fold="1" page="1" pageScale="1" pageWidth="850" pageHeight="1100" math="0" shadow="0">
      <root>
        <mxCell id="0" />
        <mxCell id="1" parent="0" />
        <mxCell id="pP97W1RPgubxPrQ_y9zu-1" style="edgeStyle=orthogonalEdgeStyle;rounded=0;orthogonalLoop=1;jettySize=auto;html=1;entryX=-0.01;entryY=0.59;entryDx=0;entryDy=0;entryPerimeter=0;" edge="1" parent="1" source="gS0B7YMKk-g66KVk8cFh-2" target="zSKnOT14KwXqUE51xgNg-3">
          <mxGeometry relative="1" as="geometry" />
        </mxCell>
        <mxCell id="gS0B7YMKk-g66KVk8cFh-2" value="" style="rounded=0;whiteSpace=wrap;html=1;" parent="1" vertex="1">
          <mxGeometry x="80" y="105" width="170" height="215" as="geometry" />
        </mxCell>
        <mxCell id="gS0B7YMKk-g66KVk8cFh-4" value="" style="endArrow=none;html=1;rounded=0;exitX=0;exitY=0.25;exitDx=0;exitDy=0;entryX=1;entryY=0.25;entryDx=0;entryDy=0;" parent="1" source="gS0B7YMKk-g66KVk8cFh-2" target="gS0B7YMKk-g66KVk8cFh-2" edge="1">
          <mxGeometry width="50" height="50" relative="1" as="geometry">
            <mxPoint x="420" y="375" as="sourcePoint" />
            <mxPoint x="470" y="325" as="targetPoint" />
            <Array as="points" />
          </mxGeometry>
        </mxCell>
        <mxCell id="gS0B7YMKk-g66KVk8cFh-5" value="&amp;lt;&amp;lt;View&amp;gt;&amp;gt;" style="text;html=1;strokeColor=none;fillColor=none;align=center;verticalAlign=middle;whiteSpace=wrap;rounded=0;" parent="1" vertex="1">
          <mxGeometry x="132" y="105" width="60" height="30" as="geometry" />
        </mxCell>
        <mxCell id="vBOU6xFZPQUat0q_35Vx-1" value="TeleMedicine Patient UI" style="text;html=1;strokeColor=none;fillColor=none;align=center;verticalAlign=middle;whiteSpace=wrap;rounded=0;" parent="1" vertex="1">
          <mxGeometry x="115" y="125" width="100" height="30" as="geometry" />
        </mxCell>
        <mxCell id="L6pFa7oqGNtenXBlpMRn-1" value="+GetAllAvailableDoctors()" style="text;html=1;strokeColor=none;fillColor=none;align=center;verticalAlign=middle;whiteSpace=wrap;rounded=0;" parent="1" vertex="1">
          <mxGeometry x="132" y="165" width="60" height="30" as="geometry" />
        </mxCell>
        <mxCell id="zSKnOT14KwXqUE51xgNg-1" value="+RequestForMeeting()" style="text;html=1;strokeColor=none;fillColor=none;align=center;verticalAlign=middle;whiteSpace=wrap;rounded=0;" parent="1" vertex="1">
          <mxGeometry x="60" y="205" width="180" height="30" as="geometry" />
        </mxCell>
        <mxCell id="zSKnOT14KwXqUE51xgNg-3" value="" style="rounded=0;whiteSpace=wrap;html=1;" parent="1" vertex="1">
          <mxGeometry x="410" y="105" width="200" height="195" as="geometry" />
        </mxCell>
        <mxCell id="zSKnOT14KwXqUE51xgNg-4" value="" style="endArrow=none;html=1;rounded=0;exitX=0;exitY=0.25;exitDx=0;exitDy=0;entryX=1;entryY=0.25;entryDx=0;entryDy=0;" parent="1" source="zSKnOT14KwXqUE51xgNg-3" target="zSKnOT14KwXqUE51xgNg-3" edge="1">
          <mxGeometry width="50" height="50" relative="1" as="geometry">
            <mxPoint x="750" y="375" as="sourcePoint" />
            <mxPoint x="800" y="325" as="targetPoint" />
            <Array as="points" />
          </mxGeometry>
        </mxCell>
        <mxCell id="zSKnOT14KwXqUE51xgNg-5" value="&amp;lt;&amp;lt;Controller&amp;gt;&amp;gt;" style="text;html=1;strokeColor=none;fillColor=none;align=center;verticalAlign=middle;whiteSpace=wrap;rounded=0;" parent="1" vertex="1">
          <mxGeometry x="480" y="105" width="60" height="30" as="geometry" />
        </mxCell>
        <mxCell id="zSKnOT14KwXqUE51xgNg-6" value="TeleMedicine Controller" style="text;html=1;strokeColor=none;fillColor=none;align=center;verticalAlign=middle;whiteSpace=wrap;rounded=0;" parent="1" vertex="1">
          <mxGeometry x="445" y="125" width="130" height="30" as="geometry" />
        </mxCell>
        <mxCell id="zSKnOT14KwXqUE51xgNg-7" value="+RetrieveAllAvailableDoctors()" style="text;html=1;strokeColor=none;fillColor=none;align=center;verticalAlign=middle;whiteSpace=wrap;rounded=0;" parent="1" vertex="1">
          <mxGeometry x="470" y="165" width="60" height="30" as="geometry" />
        </mxCell>
        <mxCell id="zSKnOT14KwXqUE51xgNg-8" value="+RequestForMeeting(DoctorID)" style="text;html=1;strokeColor=none;fillColor=none;align=center;verticalAlign=middle;whiteSpace=wrap;rounded=0;" parent="1" vertex="1">
          <mxGeometry x="410" y="185" width="180" height="30" as="geometry" />
        </mxCell>
        <mxCell id="zSKnOT14KwXqUE51xgNg-9" value="+ConfirmPayment()" style="text;html=1;strokeColor=none;fillColor=none;align=center;verticalAlign=middle;whiteSpace=wrap;rounded=0;" parent="1" vertex="1">
          <mxGeometry x="50" y="185" width="180" height="30" as="geometry" />
        </mxCell>
        <mxCell id="pP97W1RPgubxPrQ_y9zu-2" style="edgeStyle=orthogonalEdgeStyle;rounded=0;orthogonalLoop=1;jettySize=auto;html=1;" edge="1" parent="1" source="oLWu83AGAcQPwuY2IBIB-1">
          <mxGeometry relative="1" as="geometry">
            <mxPoint x="620" y="220" as="targetPoint" />
          </mxGeometry>
        </mxCell>
        <mxCell id="oLWu83AGAcQPwuY2IBIB-1" value="" style="rounded=0;whiteSpace=wrap;html=1;" parent="1" vertex="1">
          <mxGeometry x="790" y="110" width="210" height="220" as="geometry" />
        </mxCell>
        <mxCell id="oLWu83AGAcQPwuY2IBIB-2" value="&lt;div&gt;&amp;lt;&amp;lt;model&amp;gt;&amp;gt;&lt;/div&gt;&lt;div&gt;Telemedicine&lt;/div&gt;" style="text;html=1;strokeColor=none;fillColor=none;align=center;verticalAlign=middle;whiteSpace=wrap;rounded=0;" parent="1" vertex="1">
          <mxGeometry x="865" y="120" width="60" height="30" as="geometry" />
        </mxCell>
        <mxCell id="oLWu83AGAcQPwuY2IBIB-3" value="" style="endArrow=none;html=1;rounded=0;entryX=0.999;entryY=0.054;entryDx=0;entryDy=0;entryPerimeter=0;" parent="1" edge="1">
          <mxGeometry width="50" height="50" relative="1" as="geometry">
            <mxPoint x="790" y="149.31" as="sourcePoint" />
            <mxPoint x="999.9999999999999" y="149.31000000000006" as="targetPoint" />
          </mxGeometry>
        </mxCell>
        <mxCell id="oLWu83AGAcQPwuY2IBIB-4" value="" style="endArrow=none;html=1;rounded=0;" parent="1" edge="1">
          <mxGeometry width="50" height="50" relative="1" as="geometry">
            <mxPoint x="790" y="240" as="sourcePoint" />
            <mxPoint x="1000" y="240" as="targetPoint" />
          </mxGeometry>
        </mxCell>
        <mxCell id="oLWu83AGAcQPwuY2IBIB-5" value="- doctorID" style="text;html=1;strokeColor=none;fillColor=none;align=left;verticalAlign=middle;whiteSpace=wrap;rounded=0;" parent="1" vertex="1">
          <mxGeometry x="790" y="160" width="210" height="20" as="geometry" />
        </mxCell>
        <mxCell id="oLWu83AGAcQPwuY2IBIB-6" value="- patientQueue" style="text;html=1;strokeColor=none;fillColor=none;align=left;verticalAlign=middle;whiteSpace=wrap;rounded=0;" parent="1" vertex="1">
          <mxGeometry x="790" y="180" width="210" height="20" as="geometry" />
        </mxCell>
        <mxCell id="oLWu83AGAcQPwuY2IBIB-11" value="+ GetNextPatient()" style="text;html=1;strokeColor=none;fillColor=none;align=left;verticalAlign=middle;whiteSpace=wrap;rounded=0;" parent="1" vertex="1">
          <mxGeometry x="790" y="290" width="210" height="20" as="geometry" />
        </mxCell>
        <mxCell id="oLWu83AGAcQPwuY2IBIB-13" value="+ getQueueSize()" style="text;html=1;strokeColor=none;fillColor=none;align=left;verticalAlign=middle;whiteSpace=wrap;rounded=0;" parent="1" vertex="1">
          <mxGeometry x="790" y="250" width="210" height="20" as="geometry" />
        </mxCell>
        <mxCell id="oLWu83AGAcQPwuY2IBIB-14" value="+ AddPatientToQueue(patientID)" style="text;html=1;strokeColor=none;fillColor=none;align=left;verticalAlign=middle;whiteSpace=wrap;rounded=0;" parent="1" vertex="1">
          <mxGeometry x="790" y="270" width="210" height="20" as="geometry" />
        </mxCell>
        <mxCell id="pP97W1RPgubxPrQ_y9zu-3" style="edgeStyle=orthogonalEdgeStyle;rounded=0;orthogonalLoop=1;jettySize=auto;html=1;entryX=0.45;entryY=1.01;entryDx=0;entryDy=0;entryPerimeter=0;" edge="1" parent="1" source="FewxFWujytoaBWsxXM8_-20" target="zSKnOT14KwXqUE51xgNg-3">
          <mxGeometry relative="1" as="geometry">
            <Array as="points">
              <mxPoint x="835" y="410" />
              <mxPoint x="500" y="410" />
            </Array>
          </mxGeometry>
        </mxCell>
        <mxCell id="FewxFWujytoaBWsxXM8_-20" value="" style="rounded=0;whiteSpace=wrap;html=1;" parent="1" vertex="1">
          <mxGeometry x="720" y="460" width="230" height="170" as="geometry" />
        </mxCell>
        <mxCell id="FewxFWujytoaBWsxXM8_-21" value="" style="endArrow=none;html=1;rounded=0;" parent="1" edge="1">
          <mxGeometry width="50" height="50" relative="1" as="geometry">
            <mxPoint x="720" y="511" as="sourcePoint" />
            <mxPoint x="950" y="511" as="targetPoint" />
            <Array as="points">
              <mxPoint x="840" y="511" />
              <mxPoint x="950" y="511" />
            </Array>
          </mxGeometry>
        </mxCell>
        <mxCell id="FewxFWujytoaBWsxXM8_-22" value="&amp;lt;&amp;lt;model&amp;gt;&amp;gt;" style="text;html=1;strokeColor=none;fillColor=none;align=center;verticalAlign=middle;whiteSpace=wrap;rounded=0;" parent="1" vertex="1">
          <mxGeometry x="805" y="471" width="60" height="20" as="geometry" />
        </mxCell>
        <mxCell id="FewxFWujytoaBWsxXM8_-23" value="TelemedicineDoctor" style="text;html=1;strokeColor=none;fillColor=none;align=center;verticalAlign=middle;whiteSpace=wrap;rounded=0;" parent="1" vertex="1">
          <mxGeometry x="805" y="491" width="60" height="20" as="geometry" />
        </mxCell>
        <mxCell id="FewxFWujytoaBWsxXM8_-24" value="- Doctor ID" style="text;html=1;strokeColor=none;fillColor=none;align=left;verticalAlign=middle;whiteSpace=wrap;rounded=0;" parent="1" vertex="1">
          <mxGeometry x="720" y="521" width="230" height="20" as="geometry" />
        </mxCell>
        <mxCell id="FewxFWujytoaBWsxXM8_-25" value="- Online" style="text;html=1;strokeColor=none;fillColor=none;align=left;verticalAlign=middle;whiteSpace=wrap;rounded=0;" parent="1" vertex="1">
          <mxGeometry x="720" y="541" width="230" height="20" as="geometry" />
        </mxCell>
        <mxCell id="FewxFWujytoaBWsxXM8_-32" value="" style="endArrow=none;html=1;rounded=0;" parent="1" edge="1">
          <mxGeometry width="50" height="50" relative="1" as="geometry">
            <mxPoint x="720" y="570" as="sourcePoint" />
            <mxPoint x="950" y="570" as="targetPoint" />
            <Array as="points">
              <mxPoint x="950" y="570" />
            </Array>
          </mxGeometry>
        </mxCell>
        <mxCell id="FewxFWujytoaBWsxXM8_-33" value="+ getAllAvailableDoctors()" style="text;html=1;strokeColor=none;fillColor=none;align=left;verticalAlign=middle;whiteSpace=wrap;rounded=0;" parent="1" vertex="1">
          <mxGeometry x="720" y="571" width="230" height="30" as="geometry" />
        </mxCell>
        <mxCell id="Xes0geZCXzXjOzlePbZz-2" value="+ changeStates(DoctorID)" style="text;html=1;strokeColor=none;fillColor=none;align=left;verticalAlign=middle;whiteSpace=wrap;rounded=0;" parent="1" vertex="1">
          <mxGeometry x="720" y="591" width="230" height="30" as="geometry" />
        </mxCell>
        <mxCell id="9wFEWLoMGve-Y8vbDdCM-1" value="+confirmPayment()&lt;br&gt;&lt;br&gt;&lt;br&gt;" style="text;html=1;strokeColor=none;fillColor=none;align=center;verticalAlign=middle;whiteSpace=wrap;rounded=0;" vertex="1" parent="1">
          <mxGeometry x="410" y="220" width="120" height="40" as="geometry" />
        </mxCell>
        <mxCell id="9wFEWLoMGve-Y8vbDdCM-21" style="edgeStyle=orthogonalEdgeStyle;rounded=0;orthogonalLoop=1;jettySize=auto;html=1;entryX=0.25;entryY=1;entryDx=0;entryDy=0;" edge="1" parent="1" source="9wFEWLoMGve-Y8vbDdCM-5" target="zSKnOT14KwXqUE51xgNg-3">
          <mxGeometry relative="1" as="geometry" />
        </mxCell>
        <mxCell id="9wFEWLoMGve-Y8vbDdCM-5" value="" style="rounded=0;whiteSpace=wrap;html=1;" vertex="1" parent="1">
          <mxGeometry x="270" y="450" width="210" height="260" as="geometry" />
        </mxCell>
        <mxCell id="9wFEWLoMGve-Y8vbDdCM-6" value="&lt;div&gt;&amp;lt;&amp;lt;model&amp;gt;&amp;gt;&lt;/div&gt;&lt;div&gt;Telemedicine History&lt;/div&gt;" style="text;html=1;strokeColor=none;fillColor=none;align=center;verticalAlign=middle;whiteSpace=wrap;rounded=0;" vertex="1" parent="1">
          <mxGeometry x="285" y="450" width="180" height="30" as="geometry" />
        </mxCell>
        <mxCell id="9wFEWLoMGve-Y8vbDdCM-7" value="" style="endArrow=none;html=1;rounded=0;entryX=0.999;entryY=0.054;entryDx=0;entryDy=0;entryPerimeter=0;" edge="1" parent="1">
          <mxGeometry width="50" height="50" relative="1" as="geometry">
            <mxPoint x="270" y="489.31" as="sourcePoint" />
            <mxPoint x="479.9999999999999" y="489.31000000000006" as="targetPoint" />
          </mxGeometry>
        </mxCell>
        <mxCell id="9wFEWLoMGve-Y8vbDdCM-8" value="" style="endArrow=none;html=1;rounded=0;" edge="1" parent="1">
          <mxGeometry width="50" height="50" relative="1" as="geometry">
            <mxPoint x="270" y="610" as="sourcePoint" />
            <mxPoint x="480" y="610" as="targetPoint" />
          </mxGeometry>
        </mxCell>
        <mxCell id="9wFEWLoMGve-Y8vbDdCM-9" value="- doctorID" style="text;html=1;strokeColor=none;fillColor=none;align=left;verticalAlign=middle;whiteSpace=wrap;rounded=0;" vertex="1" parent="1">
          <mxGeometry x="270" y="500" width="210" height="20" as="geometry" />
        </mxCell>
        <mxCell id="9wFEWLoMGve-Y8vbDdCM-10" value="- patientID" style="text;html=1;strokeColor=none;fillColor=none;align=left;verticalAlign=middle;whiteSpace=wrap;rounded=0;" vertex="1" parent="1">
          <mxGeometry x="270" y="520" width="210" height="20" as="geometry" />
        </mxCell>
        <mxCell id="9wFEWLoMGve-Y8vbDdCM-11" value="+ GetNextPatient()" style="text;html=1;strokeColor=none;fillColor=none;align=left;verticalAlign=middle;whiteSpace=wrap;rounded=0;" vertex="1" parent="1">
          <mxGeometry x="270" y="680" width="210" height="20" as="geometry" />
        </mxCell>
        <mxCell id="9wFEWLoMGve-Y8vbDdCM-12" value="+ getHistory()" style="text;html=1;strokeColor=none;fillColor=none;align=left;verticalAlign=middle;whiteSpace=wrap;rounded=0;" vertex="1" parent="1">
          <mxGeometry x="270" y="620" width="210" height="20" as="geometry" />
        </mxCell>
        <mxCell id="9wFEWLoMGve-Y8vbDdCM-13" value="+ AddPatientToQueue(patientID)" style="text;html=1;strokeColor=none;fillColor=none;align=left;verticalAlign=middle;whiteSpace=wrap;rounded=0;" vertex="1" parent="1">
          <mxGeometry x="270" y="649" width="210" height="20" as="geometry" />
        </mxCell>
        <mxCell id="9wFEWLoMGve-Y8vbDdCM-14" value="- callDuration" style="text;html=1;strokeColor=none;fillColor=none;align=left;verticalAlign=middle;whiteSpace=wrap;rounded=0;" vertex="1" parent="1">
          <mxGeometry x="270" y="540" width="210" height="20" as="geometry" />
        </mxCell>
        <mxCell id="9wFEWLoMGve-Y8vbDdCM-15" value="- payment" style="text;html=1;strokeColor=none;fillColor=none;align=left;verticalAlign=middle;whiteSpace=wrap;rounded=0;" vertex="1" parent="1">
          <mxGeometry x="270" y="560" width="210" height="20" as="geometry" />
        </mxCell>
        <mxCell id="9wFEWLoMGve-Y8vbDdCM-17" value="- primary diagnosis" style="text;html=1;strokeColor=none;fillColor=none;align=left;verticalAlign=middle;whiteSpace=wrap;rounded=0;" vertex="1" parent="1">
          <mxGeometry x="270" y="580" width="210" height="20" as="geometry" />
        </mxCell>
        <mxCell id="9wFEWLoMGve-Y8vbDdCM-19" value="+ seePrevHistory()" style="text;html=1;strokeColor=none;fillColor=none;align=left;verticalAlign=middle;whiteSpace=wrap;rounded=0;" vertex="1" parent="1">
          <mxGeometry x="80" y="235" width="210" height="20" as="geometry" />
        </mxCell>
        <mxCell id="9wFEWLoMGve-Y8vbDdCM-22" value="+ getPrevHistory(patient ID)" style="text;html=1;strokeColor=none;fillColor=none;align=left;verticalAlign=middle;whiteSpace=wrap;rounded=0;" vertex="1" parent="1">
          <mxGeometry x="410" y="240" width="210" height="20" as="geometry" />
        </mxCell>
      </root>
    </mxGraphModel>
  </diagram>
  <diagram id="hZtQ6weR0TOhR_PIxk1z" name="Telemedicine-Doctor">
    <mxGraphModel dx="1434" dy="735" grid="1" gridSize="10" guides="1" tooltips="1" connect="1" arrows="1" fold="1" page="1" pageScale="1" pageWidth="827" pageHeight="1169" math="0" shadow="0">
      <root>
        <mxCell id="0" />
        <mxCell id="1" parent="0" />
        <mxCell id="rAA0Z-6HAiQExlQVsa0w-2" style="edgeStyle=orthogonalEdgeStyle;rounded=0;orthogonalLoop=1;jettySize=auto;html=1;entryX=1.015;entryY=0.613;entryDx=0;entryDy=0;entryPerimeter=0;" parent="1" source="uI9WTjxjR80u9AEWAo8b-1" target="mdh7TPfpszsdeGroxgo6-1" edge="1">
          <mxGeometry relative="1" as="geometry" />
        </mxCell>
        <mxCell id="uI9WTjxjR80u9AEWAo8b-1" value="" style="rounded=0;whiteSpace=wrap;html=1;" parent="1" vertex="1">
          <mxGeometry x="820" y="125" width="210" height="245" as="geometry" />
        </mxCell>
        <mxCell id="uI9WTjxjR80u9AEWAo8b-2" value="&lt;div&gt;&amp;lt;&amp;lt;model&amp;gt;&amp;gt;&lt;/div&gt;&lt;div&gt;Telemedicine&lt;/div&gt;" style="text;html=1;strokeColor=none;fillColor=none;align=center;verticalAlign=middle;whiteSpace=wrap;rounded=0;" parent="1" vertex="1">
          <mxGeometry x="895" y="135" width="60" height="30" as="geometry" />
        </mxCell>
        <mxCell id="uI9WTjxjR80u9AEWAo8b-3" value="" style="endArrow=none;html=1;rounded=0;entryX=0.999;entryY=0.054;entryDx=0;entryDy=0;entryPerimeter=0;" parent="1" edge="1">
          <mxGeometry width="50" height="50" relative="1" as="geometry">
            <mxPoint x="820" y="164.31" as="sourcePoint" />
            <mxPoint x="1030" y="164.31000000000006" as="targetPoint" />
          </mxGeometry>
        </mxCell>
        <mxCell id="uI9WTjxjR80u9AEWAo8b-4" value="" style="endArrow=none;html=1;rounded=0;" parent="1" edge="1">
          <mxGeometry width="50" height="50" relative="1" as="geometry">
            <mxPoint x="820" y="255" as="sourcePoint" />
            <mxPoint x="1030" y="255" as="targetPoint" />
          </mxGeometry>
        </mxCell>
        <mxCell id="uI9WTjxjR80u9AEWAo8b-5" value="- doctorID" style="text;html=1;strokeColor=none;fillColor=none;align=left;verticalAlign=middle;whiteSpace=wrap;rounded=0;" parent="1" vertex="1">
          <mxGeometry x="820" y="175" width="210" height="20" as="geometry" />
        </mxCell>
        <mxCell id="uI9WTjxjR80u9AEWAo8b-6" value="- patientQueue" style="text;html=1;strokeColor=none;fillColor=none;align=left;verticalAlign=middle;whiteSpace=wrap;rounded=0;" parent="1" vertex="1">
          <mxGeometry x="820" y="195" width="210" height="20" as="geometry" />
        </mxCell>
        <mxCell id="uI9WTjxjR80u9AEWAo8b-7" value="+ GetNextPatient()" style="text;html=1;strokeColor=none;fillColor=none;align=left;verticalAlign=middle;whiteSpace=wrap;rounded=0;" parent="1" vertex="1">
          <mxGeometry x="820" y="305" width="210" height="20" as="geometry" />
        </mxCell>
        <mxCell id="uI9WTjxjR80u9AEWAo8b-8" value="+ getQueueSize()" style="text;html=1;strokeColor=none;fillColor=none;align=left;verticalAlign=middle;whiteSpace=wrap;rounded=0;" parent="1" vertex="1">
          <mxGeometry x="820" y="265" width="210" height="20" as="geometry" />
        </mxCell>
        <mxCell id="uI9WTjxjR80u9AEWAo8b-9" value="+ AddPatientToQueue(patientID)" style="text;html=1;strokeColor=none;fillColor=none;align=left;verticalAlign=middle;whiteSpace=wrap;rounded=0;" parent="1" vertex="1">
          <mxGeometry x="820" y="285" width="210" height="20" as="geometry" />
        </mxCell>
        <mxCell id="rAA0Z-6HAiQExlQVsa0w-5" style="edgeStyle=orthogonalEdgeStyle;rounded=0;orthogonalLoop=1;jettySize=auto;html=1;" parent="1" source="a6awj1wCOAJbxXiSZKlP-1" edge="1">
          <mxGeometry relative="1" as="geometry">
            <mxPoint x="550" y="330" as="targetPoint" />
            <Array as="points">
              <mxPoint x="960" y="430" />
              <mxPoint x="551" y="430" />
            </Array>
          </mxGeometry>
        </mxCell>
        <mxCell id="a6awj1wCOAJbxXiSZKlP-1" value="" style="rounded=0;whiteSpace=wrap;html=1;" parent="1" vertex="1">
          <mxGeometry x="790" y="510" width="340" height="220" as="geometry" />
        </mxCell>
        <mxCell id="a6awj1wCOAJbxXiSZKlP-2" value="" style="endArrow=none;html=1;rounded=0;" parent="1" edge="1">
          <mxGeometry width="50" height="50" relative="1" as="geometry">
            <mxPoint x="790" y="559.5" as="sourcePoint" />
            <mxPoint x="1130" y="559.5" as="targetPoint" />
          </mxGeometry>
        </mxCell>
        <mxCell id="a6awj1wCOAJbxXiSZKlP-3" value="&amp;lt;&amp;lt;model&amp;gt;&amp;gt;&lt;br&gt;Notification" style="text;html=1;strokeColor=none;fillColor=none;align=center;verticalAlign=middle;whiteSpace=wrap;rounded=0;" parent="1" vertex="1">
          <mxGeometry x="425" y="636" width="60" height="30" as="geometry" />
        </mxCell>
        <mxCell id="a6awj1wCOAJbxXiSZKlP-4" value="" style="endArrow=none;html=1;rounded=0;" parent="1" edge="1">
          <mxGeometry width="50" height="50" relative="1" as="geometry">
            <mxPoint x="790" y="670" as="sourcePoint" />
            <mxPoint x="1130" y="670" as="targetPoint" />
          </mxGeometry>
        </mxCell>
        <mxCell id="a6awj1wCOAJbxXiSZKlP-5" value="- Identification" style="text;html=1;strokeColor=none;fillColor=none;align=left;verticalAlign=middle;whiteSpace=wrap;rounded=0;" parent="1" vertex="1">
          <mxGeometry x="790" y="570" width="290" height="20" as="geometry" />
        </mxCell>
        <mxCell id="a6awj1wCOAJbxXiSZKlP-6" value="- ID" style="text;html=1;strokeColor=none;fillColor=none;align=left;verticalAlign=middle;whiteSpace=wrap;rounded=0;" parent="1" vertex="1">
          <mxGeometry x="790" y="590" width="290" height="20" as="geometry" />
        </mxCell>
        <mxCell id="a6awj1wCOAJbxXiSZKlP-7" value="- Notification ID" style="text;html=1;strokeColor=none;fillColor=none;align=left;verticalAlign=middle;whiteSpace=wrap;rounded=0;" parent="1" vertex="1">
          <mxGeometry x="790" y="610" width="290" height="20" as="geometry" />
        </mxCell>
        <mxCell id="a6awj1wCOAJbxXiSZKlP-8" value="- Message" style="text;html=1;strokeColor=none;fillColor=none;align=left;verticalAlign=middle;whiteSpace=wrap;rounded=0;" parent="1" vertex="1">
          <mxGeometry x="790" y="640" width="290" height="20" as="geometry" />
        </mxCell>
        <mxCell id="a6awj1wCOAJbxXiSZKlP-9" value="CreateNotifications(MSg,Identification,Id)" style="text;html=1;strokeColor=none;fillColor=none;align=left;verticalAlign=middle;whiteSpace=wrap;rounded=0;" parent="1" vertex="1">
          <mxGeometry x="800" y="660" width="410" height="80" as="geometry" />
        </mxCell>
        <mxCell id="rAA0Z-6HAiQExlQVsa0w-1" style="edgeStyle=orthogonalEdgeStyle;rounded=0;orthogonalLoop=1;jettySize=auto;html=1;" parent="1" source="jk8r4WlQuK1JZxxlcAi2-1" edge="1">
          <mxGeometry relative="1" as="geometry">
            <mxPoint x="440" y="235" as="targetPoint" />
          </mxGeometry>
        </mxCell>
        <mxCell id="jk8r4WlQuK1JZxxlcAi2-1" value="" style="rounded=0;whiteSpace=wrap;html=1;" parent="1" vertex="1">
          <mxGeometry x="40" y="120" width="170" height="230" as="geometry" />
        </mxCell>
        <mxCell id="jk8r4WlQuK1JZxxlcAi2-2" value="" style="endArrow=none;html=1;rounded=0;exitX=0;exitY=0.25;exitDx=0;exitDy=0;entryX=1;entryY=0.25;entryDx=0;entryDy=0;" parent="1" source="jk8r4WlQuK1JZxxlcAi2-1" target="jk8r4WlQuK1JZxxlcAi2-1" edge="1">
          <mxGeometry width="50" height="50" relative="1" as="geometry">
            <mxPoint x="380" y="390" as="sourcePoint" />
            <mxPoint x="430" y="340" as="targetPoint" />
            <Array as="points" />
          </mxGeometry>
        </mxCell>
        <mxCell id="jk8r4WlQuK1JZxxlcAi2-3" value="&amp;lt;&amp;lt;View&amp;gt;&amp;gt;" style="text;html=1;strokeColor=none;fillColor=none;align=center;verticalAlign=middle;whiteSpace=wrap;rounded=0;" parent="1" vertex="1">
          <mxGeometry x="92" y="120" width="60" height="30" as="geometry" />
        </mxCell>
        <mxCell id="jk8r4WlQuK1JZxxlcAi2-4" value="TeleMedicine Doctor UI" style="text;html=1;strokeColor=none;fillColor=none;align=center;verticalAlign=middle;whiteSpace=wrap;rounded=0;" parent="1" vertex="1">
          <mxGeometry x="75" y="140" width="100" height="30" as="geometry" />
        </mxCell>
        <mxCell id="jk8r4WlQuK1JZxxlcAi2-5" value="+changeState()" style="text;html=1;strokeColor=none;fillColor=none;align=center;verticalAlign=middle;whiteSpace=wrap;rounded=0;" parent="1" vertex="1">
          <mxGeometry x="60" y="185" width="60" height="30" as="geometry" />
        </mxCell>
        <mxCell id="jk8r4WlQuK1JZxxlcAi2-6" value="+SeeNextPatient()" style="text;html=1;strokeColor=none;fillColor=none;align=center;verticalAlign=middle;whiteSpace=wrap;rounded=0;" parent="1" vertex="1">
          <mxGeometry x="10" y="205" width="180" height="30" as="geometry" />
        </mxCell>
        <mxCell id="mdh7TPfpszsdeGroxgo6-1" value="" style="rounded=0;whiteSpace=wrap;html=1;" parent="1" vertex="1">
          <mxGeometry x="450" y="95" width="200" height="230" as="geometry" />
        </mxCell>
        <mxCell id="mdh7TPfpszsdeGroxgo6-2" value="" style="endArrow=none;html=1;rounded=0;exitX=0;exitY=0.25;exitDx=0;exitDy=0;entryX=1;entryY=0.25;entryDx=0;entryDy=0;" parent="1" source="mdh7TPfpszsdeGroxgo6-1" target="mdh7TPfpszsdeGroxgo6-1" edge="1">
          <mxGeometry width="50" height="50" relative="1" as="geometry">
            <mxPoint x="790" y="365" as="sourcePoint" />
            <mxPoint x="840" y="315" as="targetPoint" />
            <Array as="points" />
          </mxGeometry>
        </mxCell>
        <mxCell id="mdh7TPfpszsdeGroxgo6-3" value="&amp;lt;&amp;lt;Controller&amp;gt;&amp;gt;" style="text;html=1;strokeColor=none;fillColor=none;align=center;verticalAlign=middle;whiteSpace=wrap;rounded=0;" parent="1" vertex="1">
          <mxGeometry x="520" y="95" width="60" height="30" as="geometry" />
        </mxCell>
        <mxCell id="mdh7TPfpszsdeGroxgo6-4" value="TeleMedicine UI" style="text;html=1;strokeColor=none;fillColor=none;align=center;verticalAlign=middle;whiteSpace=wrap;rounded=0;" parent="1" vertex="1">
          <mxGeometry x="500" y="115" width="100" height="30" as="geometry" />
        </mxCell>
        <mxCell id="mdh7TPfpszsdeGroxgo6-7" value="+changeState()" style="text;html=1;strokeColor=none;fillColor=none;align=center;verticalAlign=middle;whiteSpace=wrap;rounded=0;" parent="1" vertex="1">
          <mxGeometry x="480" y="160" width="60" height="30" as="geometry" />
        </mxCell>
        <mxCell id="mdh7TPfpszsdeGroxgo6-8" value="+NotifyPatient1()" style="text;html=1;strokeColor=none;fillColor=none;align=center;verticalAlign=middle;whiteSpace=wrap;rounded=0;" parent="1" vertex="1">
          <mxGeometry x="480" y="185" width="60" height="30" as="geometry" />
        </mxCell>
        <mxCell id="mdh7TPfpszsdeGroxgo6-9" value="+fetchNextPatient()" style="text;html=1;strokeColor=none;fillColor=none;align=center;verticalAlign=middle;whiteSpace=wrap;rounded=0;" parent="1" vertex="1">
          <mxGeometry x="480" y="215" width="60" height="30" as="geometry" />
        </mxCell>
        <mxCell id="mdh7TPfpszsdeGroxgo6-12" value="+NotifyPatients2()" style="text;html=1;strokeColor=none;fillColor=none;align=center;verticalAlign=middle;whiteSpace=wrap;rounded=0;" parent="1" vertex="1">
          <mxGeometry x="480" y="250" width="60" height="30" as="geometry" />
        </mxCell>
        <mxCell id="rAA0Z-6HAiQExlQVsa0w-3" value="+ getAllPatient(doctor ID)" style="text;html=1;strokeColor=none;fillColor=none;align=left;verticalAlign=middle;whiteSpace=wrap;rounded=0;" parent="1" vertex="1">
          <mxGeometry x="820" y="330" width="210" height="20" as="geometry" />
        </mxCell>
        <mxCell id="B1Ap-RHHgPngkcI0q9GF-10" style="edgeStyle=orthogonalEdgeStyle;rounded=0;orthogonalLoop=1;jettySize=auto;html=1;entryX=0.25;entryY=1;entryDx=0;entryDy=0;" parent="1" source="B1Ap-RHHgPngkcI0q9GF-1" target="mdh7TPfpszsdeGroxgo6-1" edge="1">
          <mxGeometry relative="1" as="geometry" />
        </mxCell>
        <mxCell id="B1Ap-RHHgPngkcI0q9GF-1" value="" style="rounded=0;whiteSpace=wrap;html=1;" parent="1" vertex="1">
          <mxGeometry x="260" y="535" width="230" height="170" as="geometry" />
        </mxCell>
        <mxCell id="B1Ap-RHHgPngkcI0q9GF-2" value="" style="endArrow=none;html=1;rounded=0;" parent="1" edge="1">
          <mxGeometry width="50" height="50" relative="1" as="geometry">
            <mxPoint x="260" y="586" as="sourcePoint" />
            <mxPoint x="490" y="586" as="targetPoint" />
            <Array as="points">
              <mxPoint x="380" y="586" />
              <mxPoint x="490" y="586" />
            </Array>
          </mxGeometry>
        </mxCell>
        <mxCell id="B1Ap-RHHgPngkcI0q9GF-3" value="&amp;lt;&amp;lt;model&amp;gt;&amp;gt;" style="text;html=1;strokeColor=none;fillColor=none;align=center;verticalAlign=middle;whiteSpace=wrap;rounded=0;" parent="1" vertex="1">
          <mxGeometry x="345" y="546" width="60" height="20" as="geometry" />
        </mxCell>
        <mxCell id="B1Ap-RHHgPngkcI0q9GF-4" value="TelemedicineDoctor" style="text;html=1;strokeColor=none;fillColor=none;align=center;verticalAlign=middle;whiteSpace=wrap;rounded=0;" parent="1" vertex="1">
          <mxGeometry x="345" y="566" width="60" height="20" as="geometry" />
        </mxCell>
        <mxCell id="B1Ap-RHHgPngkcI0q9GF-5" value="- Doctor ID" style="text;html=1;strokeColor=none;fillColor=none;align=left;verticalAlign=middle;whiteSpace=wrap;rounded=0;" parent="1" vertex="1">
          <mxGeometry x="260" y="596" width="230" height="20" as="geometry" />
        </mxCell>
        <mxCell id="B1Ap-RHHgPngkcI0q9GF-6" value="- Online" style="text;html=1;strokeColor=none;fillColor=none;align=left;verticalAlign=middle;whiteSpace=wrap;rounded=0;" parent="1" vertex="1">
          <mxGeometry x="260" y="616" width="230" height="20" as="geometry" />
        </mxCell>
        <mxCell id="B1Ap-RHHgPngkcI0q9GF-7" value="" style="endArrow=none;html=1;rounded=0;" parent="1" edge="1">
          <mxGeometry width="50" height="50" relative="1" as="geometry">
            <mxPoint x="260" y="645" as="sourcePoint" />
            <mxPoint x="490" y="645" as="targetPoint" />
            <Array as="points">
              <mxPoint x="490" y="645" />
            </Array>
          </mxGeometry>
        </mxCell>
        <mxCell id="B1Ap-RHHgPngkcI0q9GF-8" value="+ getAllAvailableDoctors()" style="text;html=1;strokeColor=none;fillColor=none;align=left;verticalAlign=middle;whiteSpace=wrap;rounded=0;" parent="1" vertex="1">
          <mxGeometry x="260" y="646" width="230" height="30" as="geometry" />
        </mxCell>
        <mxCell id="B1Ap-RHHgPngkcI0q9GF-9" value="+ changeStates(DoctorID)" style="text;html=1;strokeColor=none;fillColor=none;align=left;verticalAlign=middle;whiteSpace=wrap;rounded=0;" parent="1" vertex="1">
          <mxGeometry x="260" y="666" width="230" height="30" as="geometry" />
        </mxCell>
        <mxCell id="MHljbaKwEW5AlONaBp_--1" value="&amp;lt;&amp;lt;model&amp;gt;&amp;gt;&lt;br&gt;Notification" style="text;html=1;strokeColor=none;fillColor=none;align=center;verticalAlign=middle;whiteSpace=wrap;rounded=0;" parent="1" vertex="1">
          <mxGeometry x="800" y="516" width="340" height="30" as="geometry" />
        </mxCell>
      </root>
    </mxGraphModel>
  </diagram>
</mxfile>
